<svg width="444" height="506" viewBox="0 0 444 506" fill="none" xmlns="http://www.w3.org/2000/svg">
<g filter="url(#filter0_d_502_169)">
<path d="M250.84 231.968L254.809 229.164L255.433 217.948L264.259 222.413L274.069 216.795L273.498 215.8L274.492 216.372L280.112 206.563L275.487 197.421L278.8 196.533L285.52 200.405L289.594 193.358V201.495H297.351L301.637 205.77L305.912 201.495H313.68V193.358L317.744 200.395L324.464 196.522L330.316 198.077L331.882 192.237L338.602 188.354L334.528 181.307L341.576 185.37L345.46 178.651L351.301 177.085L349.735 171.245L353.619 164.526L346.571 160.452H354.709V152.697L358.995 148.411L354.709 144.137V136.371H346.582L353.619 132.308L349.735 125.589L350.624 122.266L359.778 126.89L369.588 121.272L369.017 120.277L370.012 120.849L375.631 111.04L371.165 102.205L382.383 101.581L385.187 97.6133L385.621 102.449L397.167 109.982L408.702 102.449L409.146 97.6133L411.94 101.581L425.708 102.343L431.931 90.0374L429.899 85.6359L434.301 87.6674L438.989 85.2973V82.6733L434.259 85.0645L428.386 82.3558L421.179 66.7598L438.28 65.2045L438.989 65.7017V62.7814H438.926L424.893 52.8885L438.937 42.9849H439V40.0752L438.302 40.5724L421.189 39.0171L428.396 23.4211L434.27 20.7124L439 23.1036V20.4796L434.312 18.1096L429.909 20.141L431.941 15.7395L426.512 5.01056H411.369L409.146 8.16364L408.861 5.01056H406.511L407.062 11.1157L397.167 25.1457L387.272 11.1157L387.822 5.01056H385.473L385.187 8.16364L382.965 5.01056H365.821L367.609 5.44437L364.826 10.9464L363.757 13.0625L360.117 5.02115H357.545L362.392 15.7395L362.614 16.2261L363.63 18.4692V18.4482L364.424 20.141L362.741 19.3581H362.762L360.519 18.3317L360.022 18.0989L347.058 12.2372L345.312 5H342.899L344.349 11.0098L331.036 5H320.548L318.59 6.12155L317.945 5H315.236L317.733 9.32755L324.453 5.45493L327.776 6.34375L323.152 15.4961L327.459 23.019L317.194 20.8711L313.204 24.86V19.2099L303.457 12.8509L305.891 10.4279H313.648V5.01056H311.31V8.08954H304.918L301.605 11.3907L298.293 8.08954H291.901V5.01056H289.562V10.4279H297.33L299.753 12.8509L289.996 19.2205V24.86L286.017 20.8711L275.752 23.019L280.07 15.4855L275.445 6.34375L278.768 5.45493L285.488 9.32755L287.985 5H285.287L284.641 6.12155L282.683 5H272.175L258.883 11.0098L260.333 5H257.92L256.184 12.2266L240.49 19.3263H240.522L238.829 20.1198L239.612 18.4269V18.4482L240.48 16.5436L240.861 15.7183L245.708 5H243.136L239.506 13.0308L235.654 5.42325L237.4 5H220.288L218.076 8.14249L217.79 5H215.441L215.991 11.0945L206.086 25.1352L196.181 11.1051L196.742 5H194.392L194.106 8.15302L191.884 5H174.772L176.518 5.42325L172.666 13.0413L169.036 5.01056H166.465L172.55 18.4692V18.4375L173.354 20.141L171.65 19.3581H171.671L169.269 18.2577L168.941 18.1096L155.977 12.2478L154.231 5.01056H151.818L153.268 11.0204L139.976 5.01056H129.489L127.531 6.13214L126.885 5.01056H124.187L126.684 9.33807L133.404 5.46552L136.717 6.35434L132.092 15.5067L136.41 23.0401L126.166 20.8923L122.176 24.8812V19.2417L112.419 12.8615L114.842 10.4385H122.61V5.02115H120.271V8.10013H113.879L110.577 11.4013L107.265 8.10013H100.873V5.02115H98.5344V10.4385H106.291L108.725 12.8615L98.9683 19.2311V24.8707L94.9786 20.8817L84.7134 23.0401L89.0311 15.4961L84.4171 6.35434L87.7401 5.46552L94.46 9.33807L96.9576 5.01056H94.2484L93.6029 6.13214L91.6451 5.01056H81.147L67.8552 11.0204L69.305 5.01056H66.8922L65.1566 12.2372L52.1929 18.0989L51.833 18.2682L49.4625 19.3475H49.4837L47.7905 20.141L48.5736 18.4375V18.4692L49.8012 15.7924L49.8223 15.7395L54.6692 5.02115H52.0976L48.4678 13.0519L44.6157 5.43381L46.3512 5.01056H29.239L27.0273 8.15302L26.7415 5.01056H24.3922L24.9425 11.1051L15.0371 25.1352L14 23.6644V30.6689L15.0371 29.1982L19.6406 35.7159L26.8685 32.3724L27.5987 40.3079L35.5357 41.038L32.1916 48.2753L38.7105 52.8672L32.1916 57.4593L35.5463 64.6965L27.5987 65.416L26.8685 73.3516L19.63 70.0081L15.0371 76.5153L14 75.0445V82.049L15.0371 80.5782L24.9425 94.6083L24.3604 101.063L15.0477 107.146L14.0106 106.469V110.628L15.0583 109.94L24.3181 115.992V122.7L15.0583 131.958L14.0106 130.911V136.328L15.0583 135.281L18.8892 139.111H24.3181V144.539L28.149 148.369L24.3181 152.21V157.627H18.8892L15.0583 161.457L14.0106 160.41V165.827L15.0583 164.78L24.3181 174.038V180.757L15.0583 186.798L14.0106 186.111V190.279L15.0583 189.592L24.371 195.676L24.9531 202.119L15.0583 216.16L14.0106 214.679V221.715L15.0583 220.234L19.6511 226.751L26.8897 223.408L27.6199 231.354L35.5569 232.084L32.2128 239.321L38.7211 243.913L32.2128 248.505L35.5569 255.732L27.6199 256.462L26.8897 264.408L19.6511 261.065L15.0583 267.572L14.0106 266.09V273.127L15.0583 271.645L24.9531 285.686L24.371 292.13L15.0583 298.214L14.0106 297.526V301.695L15.0583 301.007L24.3181 307.049V313.767L15.0583 323.025L14.0106 321.978V327.385L15.0583 326.337L18.8892 330.167H24.3181V335.595L28.149 339.426L24.3181 343.256V348.684H18.8892L15.0583 352.514L14.0106 351.467V356.873L15.0583 355.826L24.3181 365.084V371.803L15.0583 377.844L14.0106 377.157V381.325L15.0583 380.638L24.371 386.722L24.9531 393.165L15.0477 407.195L14 405.703V412.75L15.0477 411.258L19.6406 417.776L26.8791 414.433L27.6093 422.368L35.5463 423.098L32.2022 430.325L38.7211 434.927L32.2022 439.519L35.5463 446.746L27.6093 447.476L26.8791 455.422L19.6406 452.079L15.0477 458.586L14 457.094V464.141L15.0477 462.649L24.9425 476.679L24.3604 483.123L15.0477 489.207L14 488.519V491.312L15.0477 492L26.5934 484.456L27.0379 479.621L29.8317 483.588L43.5997 484.35L49.8223 472.045L47.7905 467.643L52.1929 469.675L64.5005 463.453L63.7386 449.688L59.7701 446.894L64.6063 446.45L72.1412 434.917L64.6063 423.373L59.7701 422.939L63.7386 420.146L64.3523 408.931L73.1889 413.396L82.999 407.777L82.4276 406.783L83.4223 407.354L89.0417 397.546L84.4171 388.393L87.7295 387.505L94.4495 391.377L98.5238 384.33V392.467H106.281L110.567 396.742L114.842 392.467H122.61V384.33L126.674 391.367L133.394 387.494L139.246 389.049L140.812 383.209L147.532 379.326L143.468 372.279L150.516 376.342L154.4 369.623L160.242 368.057L158.676 362.217L162.56 355.498L155.511 351.424H163.65V343.669L167.936 339.383L163.65 335.109V327.342H155.522L162.56 323.279L158.676 316.561L159.565 313.238L168.719 317.862L178.529 312.244L177.957 311.249L178.952 311.82L184.571 302.012L180.106 293.177L191.323 292.563L194.117 288.606L194.551 293.431L206.097 300.975L217.642 293.431L218.076 288.596L220.87 292.563L234.638 293.325L240.861 281.02L238.829 276.618L243.231 278.65L255.539 272.428L254.777 258.663L250.808 255.869L255.645 255.425L263.18 243.892L255.645 232.348L250.808 231.915L250.84 231.968ZM29.7788 449.677L36.6046 449.053L43.0071 462.903L29.1544 456.502L29.7788 449.666V449.677ZM16.4975 460.66L20.4448 455.063L26.6675 457.941L25.2917 473.124L16.4975 460.66ZM47.2296 472.055L42.2028 481.98L31.1016 481.366L27.3659 476.076L28.9216 458.977L44.5204 466.183L47.2296 472.055ZM61.4739 451.01L62.0877 462.12L52.1611 467.146L46.2877 464.427L39.0809 448.831L56.1825 447.275L61.4739 451.01ZM38.0332 446.566L35.1548 440.355L40.7636 436.409L53.23 445.191L38.0332 446.566ZM63.2729 425.659L69.3579 434.97L63.2729 444.281L56.8281 444.863L42.7954 434.97L56.8281 425.066L63.2729 425.648V425.659ZM53.23 424.749L40.7636 433.541L35.1548 429.584L38.0332 423.373L53.23 424.749ZM252.523 227.915L247.231 231.65L230.119 230.095L237.326 214.499L243.199 211.779L253.126 216.795L252.512 227.905L252.523 227.915ZM217.716 266.926L216.341 282.11L207.546 269.646L211.494 264.048L217.716 266.926ZM220.203 265.487L220.828 258.652L227.654 258.028L234.056 271.878L220.203 265.477V265.487ZM195.884 282.12L194.509 266.926L200.731 264.048L204.679 269.646L195.884 282.12ZM178.169 271.889L184.571 258.028L191.397 258.652L192.022 265.487L178.169 271.889ZM174.888 273.412L169.026 276.121L159.099 271.095L159.713 259.985L165.004 256.25L182.106 257.806L174.899 273.402L174.888 273.412ZM171.364 281.03L171.333 281.094L165.47 294.055L152.993 297.06L155.998 284.586L168.951 278.724L169.957 278.269L171.692 277.486H171.671L173.354 276.692L172.571 278.385V278.354L171.343 281.03H171.364ZM122.631 327.416V321.311L137.087 312.963L128.737 327.416H122.631ZM49.8329 281.083L49.8223 281.052L48.5947 278.343V278.375L47.801 276.682L49.4837 277.465H49.4625L51.2087 278.269L52.1929 278.724L65.1566 284.586L68.1621 297.06L55.6851 294.055L49.8223 281.094L49.8329 281.083ZM52.8067 293.346L44.6262 291.378L48.4783 283.771L52.8067 293.346ZM94.1743 243.934L84.9145 253.193H78.1945L72.1412 243.934L78.1945 234.676H84.9039L94.1637 243.934H94.1743ZM88.2268 234.687H98.9788V239.141L95.8358 242.284L88.2268 234.687ZM95.8358 245.596L98.9788 248.738V253.193H88.2268L95.8252 245.585L95.8358 245.596ZM101.318 253.193V247.765L97.4867 243.934L101.318 240.104V234.676H106.747L110.577 230.846L114.419 234.676H119.837V240.104L123.668 243.934L119.837 247.765V253.193H114.419L110.577 257.023L106.747 253.193H101.318ZM49.452 207.632L49.8329 206.807L55.6851 193.845L68.1621 190.84L65.1566 203.315L49.452 210.415H49.4837L47.7905 211.208L48.5736 209.515V209.536L49.4414 207.632H49.452ZM48.4678 204.119L44.6157 196.512L52.7961 194.543L48.4678 204.119ZM55.0713 150.284L57.5054 152.718V160.473H65.6434L58.5954 164.547L62.4792 171.266L61.5903 174.578L52.4363 169.954L44.9014 174.271L47.0497 164.018L43.06 160.029H48.7112L55.0713 150.284ZM49.8329 90.0586L49.7483 89.8576L48.6053 87.3288V87.3605L47.8116 85.657L49.5049 86.44H49.4731L52.0553 87.6251L52.2034 87.6885L65.1778 93.5503L68.1833 106.025L55.7063 103.02L49.8435 90.048L49.8329 90.0586ZM52.8067 102.332L44.6262 100.364L48.4783 92.7567L52.8067 102.332ZM94.1849 52.9307L84.9251 62.1889H78.2051L72.1624 52.9307L78.2051 43.6726H84.9251L94.1849 52.9307ZM88.2374 43.6726H98.9894V48.1271L95.8464 51.2696L88.2374 43.6726ZM95.8358 54.5814L98.9788 57.7344V62.1889H88.2268L95.8252 54.5919L95.8358 54.5814ZM101.328 56.761L97.4973 52.9202L101.328 49.0899V43.662H106.757L110.588 39.8318L114.419 43.662H119.848V49.0899L123.679 52.9202L119.848 56.761V62.1783H114.419L110.588 66.0086L106.757 62.1783H101.328V56.761ZM105.784 41.3343H101.328V30.5842L108.927 38.1812L105.784 41.3237V41.3343ZM119.848 30.5842V41.3343H115.393L112.25 38.1918L119.848 30.5948V30.5842ZM261.804 50.7829L255.666 41.3872L250.83 40.9533L254.798 38.1601L255.412 26.9338L264.248 31.399L271.794 27.082L269.646 37.3347L273.635 41.3237H267.995L261.804 50.7829ZM373.144 39.07L356.032 40.6253L350.751 36.9009L350.137 25.7912L352.042 24.8283L360.074 20.7653L365.948 23.474L373.155 39.07H373.144ZM369.218 24.9976L383.081 31.399L382.457 38.2235L375.62 38.8478L369.218 24.9976ZM348.476 38.1601L352.434 40.9533L347.608 41.3872L341.46 50.7935L335.279 41.3237H329.628L333.618 37.3347L331.47 27.0926L339.015 31.4201L347.852 26.955L348.465 38.1706L348.476 38.1601ZM386.944 91.0955L385.568 75.9016L391.791 73.0341L395.749 78.6419L386.954 91.1061L386.944 91.0955ZM402.553 73.0236L408.776 75.9016L407.4 91.0955L398.617 78.6314L402.564 73.0236H402.553ZM369.228 80.864L375.631 67.0137L382.457 67.638L383.081 74.4626L369.228 80.864ZM365.948 82.3876L360.074 85.0963L350.148 80.0704L350.762 68.9712L356.053 65.2362L373.155 66.7916L365.948 82.3876ZM362.413 90.0162L362.382 90.0692L356.519 103.031L344.042 106.036L347.047 93.5608L360.011 87.6991L360.371 87.5404L362.741 86.4611H362.72L364.424 85.6676L363.641 87.3605V87.3288L362.413 90.0057V90.0162ZM277.551 148.443L260.756 158.146H250.904V151.755L247.602 148.443L250.904 145.142V138.751H260.746L277.551 148.454V148.443ZM282.133 138.741L285.191 144.031L279.9 147.078L265.434 138.73H282.133V138.741ZM291.933 184.629V167.943L297.224 164.886L300.272 170.176L291.922 184.629H291.933ZM306.039 164.886L311.331 167.943V184.64L302.981 170.176L306.029 164.886H306.039ZM275.138 174.937L283.488 160.484H289.604V166.6L275.149 174.948L275.138 174.937ZM271.085 177.276L262.555 182.196L259.359 176.662L254.84 175.445L256.047 170.927L252.851 165.394L261.38 160.463H280.779L271.085 177.265V177.276ZM243.263 209.177L243.199 209.208L240.522 210.415H240.554L238.861 211.219L239.644 209.515V209.536L240.734 207.166L240.892 206.807L246.755 193.845L259.232 190.84L256.227 203.315L243.263 209.177ZM255.528 206.203L253.56 214.382L245.951 210.531L255.528 206.193V206.203ZM84.7346 214.107L89.0523 206.574L84.4383 197.432L87.7612 196.543L94.4812 200.416L98.545 193.38V201.516H106.313L108.736 203.939L98.9894 210.309V215.948L94.9998 211.959L84.7346 214.118V214.107ZM134.674 148.443L151.479 138.741H161.332V145.131L164.644 148.433L161.332 151.744V158.135H151.479L134.685 148.433L134.674 148.443ZM146.791 158.135H130.102L127.044 152.845L132.335 149.797L146.791 158.146V158.135ZM98.9894 80.9274V86.5775L108.747 92.9471L106.313 95.3807H98.545V103.507L94.4812 96.4705L87.7612 100.354L84.4383 99.4649L89.0629 90.3125L84.7452 82.7791L94.9998 84.9269L98.9894 80.938V80.9274ZM126.991 52.9307L136.251 43.6726H142.971L149.014 52.9307L142.971 62.1889H136.251L126.991 52.9307ZM132.939 62.1889H122.187V57.7344L125.33 54.5919L132.928 62.1889H132.939ZM125.33 51.2696L122.187 48.1271V43.6726H132.939L125.33 51.2802V51.2696ZM178.37 52.9307L164.337 62.8238L157.893 62.2418L151.808 52.9413L157.893 43.6303L164.337 43.0483L178.37 52.9519V52.9307ZM167.936 42.7097L183.132 41.3343L186.011 47.5452L180.402 51.5024L167.936 42.7097ZM180.402 54.3698L186.011 58.3164L183.132 64.5273L167.936 63.1518L180.402 54.3698ZM150.411 55.0787L156.549 64.4744L161.385 64.9081L157.416 67.7015L156.803 78.9171L147.966 74.452L140.431 78.769L142.579 68.5162L138.59 64.5273H144.241L150.411 55.0681V55.0787ZM247.877 43.0378L254.332 43.6197L260.417 52.9307L254.332 62.2313L247.877 62.8132L233.844 52.9202L247.877 43.0166V43.0378ZM231.802 51.5024L226.204 47.5558L229.082 41.3343L244.268 42.7097L231.802 51.5024ZM285.234 52.9202L275.974 62.1783H269.254L263.201 52.9202L269.254 43.662H275.974L285.234 52.9202ZM279.286 43.662H290.038V48.1165L286.895 51.259L279.297 43.6515L279.286 43.662ZM286.885 54.5814L290.028 57.7239V62.1783H279.276L286.874 54.5814H286.885ZM244.268 63.1518L229.082 64.5273L227.664 61.4694L226.204 58.3164L230.701 55.1422L231.802 54.3592L244.268 63.1412V63.1518ZM255.666 64.4744L261.804 55.0681L267.984 64.5167H273.625L269.635 68.5056L271.794 78.769L264.259 74.452L255.422 78.9276L254.809 67.7121L250.84 64.9188L255.676 64.485L255.666 64.4744ZM222.51 148.443L231.77 139.185H238.49L244.438 148.284L244.279 148.443L244.438 148.602L238.49 157.701H231.77L222.51 148.443ZM228.458 157.701H217.706V153.247L220.849 150.104L228.447 157.701H228.458ZM220.859 146.782L217.716 143.64V139.185H228.468L220.87 146.793L220.859 146.782ZM215.367 144.613L219.198 148.443L215.367 152.273V157.701H209.938L206.107 161.532L202.266 157.701H196.847V152.273L193.016 148.443L196.847 144.613V139.185H202.266L206.107 135.355L209.938 139.185H215.367V144.613ZM232.109 194.649L220.891 195.274L218.087 199.241L217.653 194.406L208.245 188.259L217.706 182.079V176.44L221.685 180.429L231.95 178.27L227.632 185.814L232.109 194.649ZM243.866 194.543L239.538 204.119L235.686 196.512L243.866 194.543ZM191.334 195.274L180.116 194.66L184.582 185.825L180.264 178.281L190.519 180.429L194.509 176.44V182.09L203.97 188.269L194.562 194.417L194.128 199.241L191.334 195.284V195.274ZM176.55 196.512L172.698 204.119L168.359 194.543L176.539 196.512H176.55ZM122.187 215.938V210.288L112.451 203.929L114.874 201.506H122.631V193.358L126.705 200.405L133.425 196.533L136.748 197.421L132.124 206.574L136.431 214.097L126.176 211.949L122.187 215.938ZM83.5599 195.231L82.3535 190.713L76.8187 187.518L81.7503 178.99L98.545 169.298V188.692L93.624 197.22L88.0893 194.036L83.5599 195.242V195.231ZM71.3369 187.666L72.0883 184.566L77.6865 181.339L74.4588 186.925L71.3369 187.677V187.666ZM110.588 172.525L120.282 189.317V199.167H113.89L110.577 202.468L107.276 199.167H100.884V189.317L110.588 172.514V172.525ZM141.151 177.276L131.446 160.473H150.845L159.374 165.404L156.178 170.938L157.385 175.456L152.866 176.673L149.67 182.206L141.14 177.286L141.151 177.276ZM149.077 184.566L149.829 187.677L146.717 186.925L143.49 181.328L149.088 184.555L149.077 184.566ZM139.436 178.99L144.357 187.518L138.823 190.713L137.616 195.231L133.097 194.025L127.563 197.22L122.631 188.692V169.298L139.436 179V178.99ZM139.828 196.014L140.833 192.269L146.135 189.211L150.442 190.248L153.3 202.119L139.817 196.025L139.828 196.014ZM152.39 188.29L151.352 183.984L154.411 178.683L158.168 177.678L164.263 191.147L152.39 188.29ZM160.358 176.821L168.666 172.631L176.91 177.35L176.963 177.583L177.206 177.635L181.936 185.888L177.64 194.364L167.152 191.835L160.358 176.821ZM196.858 170.779V160.029H201.313L204.467 163.172L196.869 170.769L196.858 170.779ZM206.118 164.843L215.378 174.101V180.82L206.118 186.862L196.858 180.82V174.101L206.118 164.843ZM194.509 173.128L189.757 177.879L178.931 175.604L176.666 164.79L181.418 160.04H194.509V173.128ZM230.299 185.888L235.03 177.635L235.262 177.583L235.315 177.35L243.57 172.62L251.877 176.81L245.083 191.835L234.585 194.364L230.299 185.888ZM222.457 177.879L217.716 173.139V160.05H230.807L235.559 164.801L233.294 175.615L222.468 177.889L222.457 177.879ZM215.367 170.79L207.769 163.182L210.912 160.04H215.367V170.79ZM189.715 148.443L180.455 157.701H173.735L167.787 148.602L167.946 148.443L167.787 148.284L173.735 139.185H180.455L189.715 148.443ZM183.767 139.185H194.519V143.64L191.376 146.782L183.778 139.185H183.767ZM191.366 150.094L194.509 153.236V157.691H183.757L191.355 150.083L191.366 150.094ZM110.588 94.4073L113.9 97.7191H120.292V107.57L110.599 124.361L100.894 107.559V97.7191H107.286L110.588 94.4073ZM290.028 80.9274V86.567L299.785 92.9366L297.351 95.3702H289.594V103.507L285.52 96.46L278.8 100.343L275.477 99.4543L280.101 90.3019L275.784 82.7685L286.049 84.9164L290.038 80.9274H290.028ZM301.489 91.2437L292.377 85.2973V78.5785L301.637 69.3203L310.897 78.5785V85.2973L301.796 91.2437L301.648 91.0955L301.489 91.2542V91.2437ZM260.873 112.902L257.814 118.203L254.068 119.209L247.972 105.729L259.846 108.586L260.883 112.892L260.873 112.902ZM262.396 109.199L265.508 109.95L268.735 115.548L263.137 112.32L262.386 109.21L262.396 109.199ZM261.783 106.649L258.925 94.7776L272.397 100.872L271.392 104.618L266.09 107.676L261.783 106.639V106.649ZM277.445 90.376L273.254 98.6819L258.237 91.8891L255.708 81.4036L264.185 77.1184L272.439 81.848L272.492 82.0807L272.725 82.1231L277.456 90.376H277.445ZM255.528 90.6723L245.951 86.3448L253.56 82.4934L255.528 90.6723ZM240.533 86.4506H240.511L242.321 87.2759L243.252 87.6991L256.216 93.5608L259.222 106.036L246.745 103.031L240.882 90.0692L240.871 90.0374L239.644 87.3288V87.3605L238.85 85.6676L240.533 86.4506ZM217.716 120.436V114.796L208.256 108.617L217.653 102.47L218.087 97.645L220.881 101.602L232.098 102.216L227.632 111.051L231.95 118.584L221.695 116.436L217.706 120.425L217.716 120.436ZM206.118 132.043L196.858 122.785V116.066L206.118 110.024L215.378 116.066V122.785L206.118 132.043ZM215.367 126.086V136.836H210.912L207.769 133.694L215.367 126.086ZM180.264 118.595L184.582 111.061L180.116 102.226L191.334 101.613L194.138 97.645L194.583 102.48L203.98 108.628L194.53 114.807V120.457L190.54 116.468L180.275 118.616L180.264 118.595ZM168.359 102.332L172.687 92.7567L176.539 100.364L168.359 102.332ZM235.675 100.364L239.527 92.7567L243.856 102.332L235.675 100.364ZM238.279 90.0162L233.252 99.941L222.14 99.3274L218.415 94.0476L219.971 76.9385L235.569 84.144L238.279 90.0162ZM216.013 94.693L215.431 101.137L206.118 107.221L196.794 101.137L196.212 94.693L206.118 80.6629L216.023 94.7036L216.013 94.693ZM190.064 99.338L178.952 99.9516L173.925 90.0269L176.634 84.1545L192.233 76.949L193.789 94.0476L190.053 99.338H190.064ZM172.581 87.3605V87.3288L165.47 103.02L152.993 106.025L155.998 93.5503L168.962 87.6885L169.512 87.4346L171.703 86.44H171.682L173.375 85.6465L172.592 87.3394L172.581 87.3605ZM150.442 106.649L146.146 107.686L140.844 104.618L139.839 100.872L153.31 94.7776L150.453 106.649H150.442ZM165.819 86.112L166.285 86.3448L156.697 90.6723L158.665 82.4934L165.819 86.112ZM153.988 91.8997L138.971 98.6925L134.769 90.3866L139.489 82.1442L139.733 82.0913L139.786 81.848L148.03 77.1289L156.506 81.4142L153.977 91.9102L153.988 91.8997ZM126.938 82.3664L122.187 77.6157V64.5273H135.277L140.029 69.278L137.754 80.1021L126.938 82.3664ZM126.176 84.9164L136.431 82.7685L132.113 90.3019L136.738 99.4543L133.425 100.343L126.705 96.46L122.631 103.507V95.3702H114.874L112.44 92.9366L122.187 86.567V80.9168L126.176 84.9058V84.9164ZM127.552 99.666L133.087 102.861L137.606 101.645L138.823 106.162L144.357 109.358L139.436 117.886L122.631 127.589V108.194L127.563 99.666H127.552ZM146.717 109.95L149.818 109.199L149.067 112.32L143.479 115.548L146.707 109.95H146.717ZM152.379 108.596L164.253 105.739L158.157 119.209L154.411 118.203L151.342 112.892L152.379 108.596ZM167.131 105.041L177.619 102.512L181.905 110.987L177.185 119.23L176.952 119.283L176.899 119.526L168.645 124.245L160.337 120.055L167.131 105.03V105.041ZM189.757 119.008L194.509 123.758V136.847H181.418L176.666 132.096L178.931 121.272L189.757 119.008ZM196.858 126.097L204.456 133.694L201.303 136.836H196.847V126.086L196.858 126.097ZM217.716 136.836V123.748L222.457 119.008L233.284 121.272L235.559 132.096L230.807 136.847H217.716V136.836ZM235.315 119.526L235.262 119.293L235.019 119.24L230.299 110.987L234.585 102.502L245.073 105.03L251.867 120.055L243.559 124.256L235.315 119.526ZM259.349 120.214L262.545 114.68L271.074 119.611L280.768 136.402H261.37L252.84 131.482L256.026 125.948L254.819 121.42L259.338 120.203L259.349 120.214ZM272.799 117.886L267.878 109.358L273.413 106.162L274.63 101.645L279.149 102.861L284.684 99.666L289.615 108.194V127.589L272.81 117.886H272.799ZM291.933 107.559V97.7085H298.325L301.637 94.3967L304.939 97.7085H311.331V107.549L301.626 124.351L291.922 107.559H291.933ZM313.68 95.3807H305.912L303.478 92.9366L313.236 86.567V80.9168L317.225 84.9058L327.49 82.7579L323.173 90.3019L327.797 99.4438L324.474 100.332L317.754 96.4493L313.691 103.486V95.3596L313.68 95.3807ZM344.349 94.7776L341.491 106.649L337.184 107.686L331.882 104.628L330.877 100.872L344.349 94.7776ZM330.02 98.6819L325.829 90.376L330.559 82.1231L330.792 82.0807L330.835 81.848L339.089 77.1184L347.566 81.4036L345.036 91.8997L330.009 98.6925L330.02 98.6819ZM317.987 82.3558L313.236 77.605V64.5167H326.326L331.078 69.2674L328.813 80.0916L317.987 82.3558ZM310.886 75.2668L303.288 67.6697L306.441 64.5273H310.897V75.2773L310.886 75.2668ZM292.367 75.2668V64.5167H296.822L299.965 67.6592L292.356 75.2668H292.367ZM290.028 77.6157L285.287 82.3558L274.461 80.0916L272.196 69.2674L276.948 64.5167H290.038V77.605L290.028 77.6157ZM252.523 68.9712L253.137 80.081L243.21 85.1068L237.337 82.3982L230.13 66.8022L247.231 65.2467L252.523 68.9818V68.9712ZM234.056 80.8745L220.203 74.4732L220.828 67.638L227.654 67.0137L234.056 80.8745ZM217.716 75.9016L216.341 91.0955L207.546 78.6208L211.494 73.0236L217.716 75.9016ZM195.884 91.0955L194.509 75.9122L200.731 73.0341L204.679 78.6314L195.884 91.0955ZM178.169 80.8745L184.571 67.0243L191.397 67.6486L192.022 74.4837L178.169 80.8851V80.8745ZM174.888 82.3876L169.015 85.1068L159.088 80.081L159.702 68.9712L164.994 65.2362L182.095 66.7916L174.888 82.3876ZM119.848 64.5273V75.2773L112.25 67.6803L115.393 64.5378H119.848V64.5273ZM101.328 75.2773V64.5273H105.784L108.927 67.6697L101.328 75.2668V75.2773ZM110.588 69.3309L119.848 78.5891V85.3079L110.747 91.2542L110.588 91.0955L110.429 91.2542L101.328 85.3079V78.5891L110.588 69.3309ZM81.3481 100.872L80.3428 104.628L75.0408 107.686L70.7231 106.649L67.8658 94.7776L81.3481 100.872ZM68.7865 108.586L69.8236 112.892L66.7652 118.203L63.0083 119.209L56.9127 105.729L68.7865 108.586ZM72.0883 112.32L71.3369 109.21L74.4482 109.961L77.6759 115.558L72.0777 112.331L72.0883 112.32ZM76.8187 109.358L82.3535 106.173L83.5705 101.645L88.0893 102.861L93.624 99.666L98.545 108.194V127.599L81.7503 117.897L76.8187 109.368V109.358ZM100.884 112.246L109.233 126.7L106.175 131.99L100.884 128.932V112.236V112.246ZM120.282 112.246V128.943L114.99 131.99L111.932 126.7L120.282 112.246ZM137.087 121.949L128.737 136.402H122.621V130.297L137.076 121.949H137.087ZM141.14 119.6L149.67 114.68L152.866 120.214L157.385 121.43L156.178 125.959L159.374 131.493L150.845 136.413H131.436L141.13 119.621L141.14 119.6ZM162.57 132.339L158.697 125.62L159.586 122.298L168.729 126.911L176.264 122.594L174.116 132.858L178.105 136.847H172.454L166.084 146.592L163.66 144.169V136.402H155.522L162.56 132.339H162.57ZM146.791 138.741L132.335 147.089L127.044 144.042L130.102 138.751H146.802L146.791 138.741ZM163.671 152.718L166.094 150.284L172.465 160.029H178.116L174.126 164.018L176.275 174.271L168.74 169.954L159.586 174.578L158.697 171.255L162.57 164.536L155.522 160.463H163.66V152.707L163.671 152.718ZM128.748 160.484L137.098 174.937L122.642 166.589V160.473H128.758L128.748 160.484ZM120.282 167.943V184.629L111.932 170.176L114.98 164.886L120.271 167.943H120.282ZM109.233 170.176L100.884 184.64V167.943L106.175 164.886L109.233 170.176ZM84.089 174.937L92.4388 160.484H98.545V166.6L84.089 174.937ZM80.0253 177.276L71.4956 182.196L68.2997 176.662L63.7809 175.445L64.9979 170.927L61.8019 165.394L70.3316 160.473H89.7296L80.0253 177.265V177.276ZM66.7546 178.683L69.813 183.973L68.7759 188.28L56.9021 191.136L62.9872 177.667L66.744 178.672L66.7546 178.683ZM75.0303 189.19L80.3428 192.258L81.3481 196.004L67.8658 202.098L70.7231 190.227L75.0303 189.19ZM101.318 211.568L110.419 205.621L110.588 205.791L110.747 205.632L119.837 211.568V218.287L110.577 227.545L101.318 218.287V211.568ZM108.927 229.195L105.784 232.338H101.328V221.588L108.927 229.195ZM119.837 221.588V232.338H115.382L112.228 229.195L119.827 221.598L119.837 221.588ZM122.187 219.25L126.938 214.499L137.764 216.774L140.029 227.587L135.277 232.338H122.187V219.25ZM139.786 215.038L139.733 214.795L139.5 214.742L134.78 206.5L138.971 198.194L153.998 204.987L156.527 215.472L148.051 219.757L139.796 215.028L139.786 215.038ZM156.697 206.214L166.274 210.542L162.602 212.404L158.665 214.393L156.697 206.214ZM171.682 210.436H171.703L169.491 209.42L168.973 209.177L156.009 203.315L153.003 190.84L165.48 193.845L171.343 206.807L171.565 207.304L172.581 209.547V209.526L173.375 211.208L171.692 210.425L171.682 210.436ZM173.936 206.859L176.719 201.357L178.963 196.935L190.074 197.548L193.8 202.839L192.244 219.948L176.645 212.742L173.936 206.87V206.859ZM196.212 202.183L196.794 195.75L206.107 189.655L215.42 195.739L216.002 202.183L206.097 216.213L196.191 202.172L196.212 202.183ZM222.161 197.548L233.262 196.935L238.289 206.859L235.569 212.732L219.981 219.937L218.425 202.839L222.161 197.548ZM247.972 191.147L254.068 177.678L257.814 178.683L260.883 183.984L259.846 188.29L247.972 191.147ZM263.148 184.566L268.746 181.339L265.518 186.925L262.407 187.677L263.158 184.566H263.148ZM249.655 164.547L253.528 171.266L252.639 174.578L243.496 169.954L235.961 174.271L238.109 164.018L234.12 160.029H239.76L246.131 150.284L248.554 152.718V160.473H256.692L249.644 164.547H249.655ZM265.444 158.135L279.9 149.787L285.191 152.834L282.133 158.125H265.444V158.135ZM248.554 144.158L246.131 146.581L239.76 136.836H234.12L238.109 132.847L235.961 122.594L243.496 126.911L252.65 122.288L253.539 125.61L249.666 132.329L256.703 136.392H248.565V144.158H248.554ZM283.477 136.402L275.138 121.949L289.594 130.297V136.402H283.477ZM291.933 128.943V112.246L300.282 126.7L297.224 131.99L291.933 128.943ZM302.992 126.7L311.341 112.236V128.932L306.05 131.99L303.002 126.7H302.992ZM328.136 121.949L319.786 136.402H313.68V130.297L328.136 121.96V121.949ZM313.68 127.589V108.183L318.601 99.6553L324.136 102.851L328.665 101.645L329.872 106.173L335.406 109.368L330.475 117.897L313.68 127.599V127.589ZM337.766 109.95L340.878 109.199L340.126 112.31L334.528 115.537L337.756 109.94L337.766 109.95ZM343.439 108.586L355.312 105.729L349.217 119.198L345.47 118.193L342.401 112.881L343.439 108.575V108.586ZM357.334 86.3448L347.756 90.6723L349.725 82.4934L357.334 86.3448ZM348.476 67.7121L347.852 78.9276L339.015 74.4626L331.47 78.7795L333.618 68.5162L329.628 64.5273H335.269L341.449 55.0681L347.597 64.485L352.434 64.9188L348.465 67.7227L348.476 67.7121ZM318.03 52.9202L327.289 43.662H334.009L340.052 52.9202L334.009 62.1783H327.289L318.03 52.9202ZM323.977 62.1783H313.225V57.7239L316.368 54.5814L323.966 62.1783H323.977ZM316.379 51.2696L313.236 48.1271V43.6726H323.988L316.389 51.2696H316.379ZM359.006 63.1624L371.472 54.3698L377.07 58.3164L374.192 64.5378L358.995 63.1624H359.006ZM355.397 62.8344L348.952 62.2524L342.867 52.9413L348.952 43.6303L355.397 43.0483L369.44 52.9413L355.408 62.8449L355.397 62.8344ZM358.995 42.7097L374.192 41.3237L377.07 47.5452L371.461 51.4918L358.984 42.6992L358.995 42.7097ZM305.468 43.662H310.886V49.0899L314.717 52.9202L310.886 56.7504V62.1783H305.468L301.626 66.0086L297.795 62.1783H292.367V56.7504L288.536 52.9202L292.367 49.0899V43.662H297.795L301.626 39.8318L305.457 43.662H305.468ZM306.441 41.3237L303.288 38.1812L310.886 30.5842V41.3343H306.431L306.441 41.3237ZM296.832 41.3237H292.377V30.5736L299.975 38.1812L296.832 41.3237ZM252.523 36.8904L247.231 40.6253L230.13 39.07L237.337 23.474L243.21 20.7653L253.137 25.7912L252.523 36.9009V36.8904ZM227.654 38.8478L220.828 38.2235L220.203 31.399L234.056 24.9976L227.654 38.8584V38.8478ZM218.669 40.382L226.606 41.1121L223.262 48.3493L229.77 52.9413L223.262 57.5334L226.606 64.76L218.669 65.4901L217.949 73.4362L210.711 70.0927L206.118 76.5999L201.525 70.0927L194.286 73.4362L193.556 65.4901L185.619 64.76L188.963 57.5334L182.444 52.9413L188.963 48.3387L185.619 41.1121L193.556 40.382L194.276 32.4464L201.514 35.7899L206.107 29.2722L210.7 35.7899L217.939 32.4359L218.669 40.382ZM191.397 38.2235L184.571 38.8478L178.169 24.9976L192.022 31.399L191.397 38.2235ZM182.095 39.07L164.994 40.6253L159.702 36.8904L159.088 25.7806L169.015 20.7547L174.888 23.474L182.095 39.07ZM157.416 38.1601L161.385 40.9533L156.549 41.3872L150.411 50.7829L144.23 41.3237H138.59L142.579 37.3347L140.431 27.082L147.966 31.399L156.803 26.9338L157.416 38.1601ZM98.9894 64.5273V77.6157L94.2378 82.3664L83.4117 80.1021L81.147 69.278L85.8987 64.5273H98.9894ZM81.3799 81.8373L81.4328 82.0807L81.6762 82.1336L86.396 90.376L82.1947 98.6925L67.1779 91.8997L64.6487 81.4036L73.1254 77.1184L81.3693 81.8373H81.3799ZM64.4688 90.6723L54.8809 86.3342L62.4898 82.4828L64.4582 90.6617L64.4688 90.6723ZM54.0342 105.03L60.8283 120.055L52.5209 124.245L44.2664 119.515L44.2135 119.283L43.9807 119.23L39.2503 110.977L43.5468 102.502L54.0342 105.02V105.03ZM68.2997 120.214L71.4956 114.68L80.0253 119.611L89.7296 136.402H70.321L61.7913 131.482L64.9873 125.948L63.7809 121.42L68.2997 120.214ZM84.089 121.949L98.545 130.297V136.402H92.4388L84.089 121.949ZM100.884 131.641L107.032 135.185L110.577 129.038L114.133 135.185L120.282 131.641V138.741H127.383L123.827 144.888L129.975 148.433L123.827 151.977L127.372 158.125H120.271V165.224L114.123 161.68L110.577 167.827L107.032 161.68L100.873 165.235V158.135H93.7722L97.3174 151.988L91.1688 148.433L97.3174 144.888L93.7722 138.73H100.873V131.641H100.884ZM91.0842 158.135H74.3847L88.8406 149.787L94.132 152.845L91.0736 158.135H91.0842ZM94.1426 144.031L88.8512 147.089L74.3847 138.741H91.0842L94.1426 144.031ZM69.6966 138.741L86.5019 148.443L69.7072 158.146H59.8547V151.755L56.5423 148.443L59.8547 145.142V138.751H69.6966V138.741ZM52.5103 172.62L60.8177 176.81L54.0237 191.835L43.5257 194.353L39.2397 185.878L43.9595 177.635L44.2029 177.583L44.2559 177.339L52.4998 172.62H52.5103ZM54.8914 210.531L64.4688 206.193L62.5004 214.372L54.8809 210.52L54.8914 210.531ZM67.1779 204.976L82.1947 198.183L86.396 206.489L81.6656 214.732L81.4328 214.784L81.3799 215.017L73.1254 219.747L64.6487 215.462L67.1779 204.965V204.976ZM94.2378 214.499L98.9788 219.239V232.327H85.8881L81.1365 227.577L83.4117 216.763L94.2378 214.488V214.499ZM126.981 243.934L136.24 234.676H142.96L149.003 243.934L142.96 253.193H136.24L126.981 243.934ZM132.928 253.193H122.176V248.738L125.319 245.596L132.917 253.203L132.928 253.193ZM125.33 242.284L122.187 239.141V234.687H132.939L125.34 242.284H125.33ZM98.9788 271.942V277.581L108.736 283.951L106.302 286.384H98.545V294.521L94.4706 287.474L87.7506 291.357L84.4277 290.469L89.0523 281.316L84.7346 273.783L94.9998 275.931L98.9894 271.942H98.9788ZM110.577 260.335L119.837 269.593V276.311L110.736 282.258L110.588 282.11L110.429 282.268L101.318 276.322V269.603L110.577 260.345V260.335ZM101.318 266.292V255.541H105.773L108.916 258.684L101.307 266.292H101.318ZM81.3481 291.886L80.3428 295.642L75.0408 298.7L70.7337 297.663L67.8764 285.792L81.3587 291.886H81.3481ZM68.7865 299.6L69.8236 303.906L66.7652 309.207L63.0083 310.212L56.9127 296.732L68.7865 299.589V299.6ZM72.0883 303.335L71.3369 300.224L74.4482 300.975L77.6759 306.572L72.0777 303.345L72.0883 303.335ZM76.8187 300.372L82.3535 297.177L83.5599 292.659L88.0787 293.865L93.6134 290.67L98.545 299.198V318.592L81.7397 308.89L76.8187 300.361V300.372ZM100.884 298.584V288.733H107.276L110.588 285.421L113.89 288.733H120.282V298.573L110.577 315.376L100.873 298.584H100.884ZM122.631 286.395H114.863L112.429 283.951L122.187 277.581V271.931L126.176 275.92L136.442 273.772L132.124 281.316L136.748 290.469L133.425 291.357L126.705 287.474L122.642 294.51V286.384L122.631 286.395ZM153.3 285.792L150.442 297.663L146.135 298.7L140.833 295.642L139.828 291.886L153.3 285.792ZM138.971 289.707L134.78 281.401L139.51 273.148L139.743 273.106L139.796 272.873L148.051 268.143L156.527 272.428L153.998 282.914L138.971 289.707ZM126.938 273.37L122.187 268.619V255.531H135.277L140.029 260.282L137.764 271.106L126.938 273.37ZM119.837 266.281L112.239 258.684L115.393 255.541H119.848V266.292L119.837 266.281ZM98.9788 268.63L94.2378 273.381L83.4117 271.116L81.1365 260.292L85.8881 255.541H98.9788V268.63ZM81.3799 272.852L81.4328 273.084L81.6656 273.137L86.396 281.39L82.1947 289.696L67.1779 282.903L64.6487 272.407L73.1254 268.122L81.3799 272.852ZM64.4688 281.686L54.8914 277.359L62.5004 273.508L64.4688 281.686ZM54.0342 296.055L60.8283 311.08L52.5209 315.27L44.2664 310.551L44.2135 310.318L43.9807 310.265L39.2503 302.012L43.5362 293.537L54.0342 296.066V296.055ZM68.2997 311.228L71.4956 305.694L80.0253 310.625L89.719 327.416H70.321L61.7913 322.496L64.9767 316.963L63.7703 312.434L68.2891 311.228H68.2997ZM84.089 312.963L98.545 321.311V327.416H92.4282L84.0784 312.963H84.089ZM100.884 319.957V303.261L109.233 317.714L106.175 323.004L100.884 319.957ZM111.943 317.714L120.292 303.261V319.957L115.001 323.004L111.943 317.714ZM122.631 318.603V299.198L127.552 290.67L133.087 293.865L137.616 292.648L138.833 297.177L144.368 300.372L139.436 308.9L122.642 318.603H122.631ZM146.717 300.965L149.829 300.213L149.077 303.324L143.479 306.551L146.707 300.954L146.717 300.965ZM152.39 299.6L164.263 296.743L158.168 310.212L154.421 309.207L151.352 303.895L152.39 299.589V299.6ZM166.285 277.359L156.707 281.686L158.676 273.508L166.285 277.359ZM157.427 258.726L156.803 269.942L147.966 265.477L140.421 269.794L142.569 259.53L138.579 255.541H144.23L150.411 246.082L156.559 255.489L161.395 255.933L157.427 258.726ZM167.946 254.177L180.412 245.395L186.011 249.341L183.132 255.552L167.946 254.177ZM164.348 253.849L157.893 253.267L151.808 243.966L157.893 234.655L164.348 234.073L178.381 243.977L164.348 253.87V253.849ZM167.946 233.724L183.143 232.348L186.021 238.57L180.423 242.517L167.957 233.724H167.946ZM156.559 232.412L150.421 241.808L144.241 232.338H138.59L142.579 228.349L140.431 218.107L147.977 222.424L156.813 217.959L157.427 229.174L161.395 231.968L156.559 232.401V232.412ZM159.702 227.915L159.088 216.805L169.015 211.779L174.888 214.488L182.095 230.084L164.994 231.64L159.702 227.905V227.915ZM178.169 216.012L192.022 222.413L191.397 229.248L184.571 229.873L178.169 216.012ZM194.509 220.985L195.884 205.791L204.679 218.266L200.731 223.873L194.509 220.995V220.985ZM216.341 205.791L217.716 220.985L211.494 223.863L207.546 218.255L216.341 205.791ZM234.056 216.012L227.654 229.862L220.828 229.238L220.203 222.413L234.056 216.012ZM277.445 206.5L272.619 214.933L264.185 219.757L255.708 215.462L258.227 204.976L273.254 198.183L277.445 206.489V206.5ZM258.925 202.098L261.783 190.227L266.09 189.19L271.392 192.258L272.397 196.004L258.925 202.098ZM284.662 197.22L279.128 194.025L274.609 195.231L273.392 190.713L267.857 187.518L272.778 178.99L289.583 169.287V188.682L284.652 197.21L284.662 197.22ZM311.341 199.167H304.949L301.648 202.468L298.335 199.167H291.943V189.317L301.648 172.525L311.352 189.327V199.178L311.341 199.167ZM335.406 187.518L329.872 190.713L328.665 195.231L324.136 194.025L318.601 197.22L313.68 188.692V169.298L330.475 178.99L335.396 187.518H335.406ZM341.893 160.484L350.423 165.415L347.227 170.948L348.434 175.466L343.915 176.683L340.719 182.217L332.189 177.297L322.485 160.505H341.883L341.893 160.484ZM319.786 160.484L328.136 174.937L313.68 166.6V160.484H319.786ZM352.37 138.741V145.131L355.683 148.433L352.37 151.744V158.135H342.518L325.723 148.433L342.528 138.73H352.37V138.741ZM337.84 158.135H321.141L318.093 152.845L323.384 149.787L337.84 158.135ZM323.384 147.089L318.093 144.031L321.141 138.741H337.851L323.384 147.089ZM311.341 138.741H318.442L314.897 144.888L321.046 148.433L314.897 151.988L318.442 158.135H311.341V165.235L305.193 161.68L301.648 167.827L298.102 161.69L291.954 165.235V158.135H284.853L288.398 151.988L282.26 148.443L288.409 144.899L284.853 138.751H291.954V131.662L298.102 135.207L301.658 129.059L305.203 135.207L311.352 131.662V138.762L311.341 138.741ZM347.227 125.948L350.423 131.482L341.904 136.402H322.495L332.2 119.611L340.729 114.68L343.925 120.224L348.444 121.43L347.238 125.948H347.227ZM372.975 110.987L368.149 119.42L359.715 124.245L351.397 120.055L358.191 105.041L368.689 102.512L372.975 110.987ZM359.418 102.332L363.747 92.7567L367.599 100.375L359.418 102.343V102.332ZM381.123 99.338L370.012 99.9516L364.985 90.0269L367.705 84.1545L383.303 76.949L384.859 94.0476L381.123 99.338ZM406.479 101.137L397.167 107.221L387.854 101.137L387.272 94.693L397.177 80.6629L407.072 94.693L406.49 101.137H406.479ZM426.629 84.1545L429.338 90.0269L424.311 99.9516L413.199 99.338L409.464 94.0476L411.019 76.949L426.618 84.1545H426.629ZM425.116 80.8745L411.263 74.4732L411.887 67.6486L418.724 67.0243L425.126 80.8745H425.116ZM435.338 63.1518L420.142 64.5273L417.263 58.3058L422.861 54.3592L435.328 63.1518H435.338ZM435.338 42.7097L422.861 51.5024L417.263 47.5558L420.142 41.3343L435.338 42.7097ZM409.718 40.3714L417.665 41.0909L414.321 48.3281L420.83 52.9202L414.321 57.5122L417.665 64.7495L409.718 65.4796L408.998 73.4151L401.77 70.0716L397.177 76.5894L392.574 70.0716L385.346 73.4151L384.616 65.4796L376.679 64.7495L380.023 57.5122L373.504 52.9202L380.023 48.3281L376.679 41.0909L384.626 40.3714L385.357 32.4359L392.595 35.7794L397.188 29.2722L401.781 35.7794L409.009 32.4359L409.739 40.3714H409.718ZM418.713 38.8478L411.877 38.2235L411.252 31.399L425.116 24.9976L418.713 38.8478ZM413.21 6.53421L424.322 5.9205L429.349 15.8452L426.639 21.7069L411.041 28.9124L409.485 11.814L413.221 6.52362L413.21 6.53421ZM407.39 14.7766L408.765 29.96L402.543 32.8379L398.595 27.2408L407.379 14.7766H407.39ZM395.738 27.2408L391.791 32.8379L385.568 29.96L386.944 14.766L395.738 27.2301V27.2408ZM364.995 15.8452L370.022 5.9205L381.134 6.53421L384.87 11.8246L383.314 28.923L367.715 21.7176L365.006 15.8558L364.995 15.8452ZM357.334 19.5273L349.725 23.3787L347.756 15.1999L357.334 19.5379V19.5273ZM325.829 15.4961L330.03 7.17963L345.047 13.9724L347.576 24.4686L339.1 28.7538L330.845 24.0241L330.792 23.7808L330.559 23.7279L325.84 15.4855L325.829 15.4961ZM317.987 23.4846L328.813 25.7488L331.078 36.5623L326.326 41.3131H313.236V28.2247L317.987 23.474V23.4846ZM292.367 20.5431L301.468 14.5967L301.626 14.7555L301.785 14.5967L310.886 20.5325V27.2513L301.626 36.5095L292.367 27.2513V20.5325V20.5431ZM290.028 28.2353V41.3237H276.937L272.185 36.573L274.45 25.7594L285.276 23.4846L290.017 28.2353H290.028ZM273.244 7.16901L277.434 15.4749L272.715 23.7173L272.482 23.7702L272.429 24.003L264.174 28.7326L255.698 24.4474L258.227 13.9513L273.244 7.15842V7.16901ZM245.94 19.5168L255.518 15.1786L253.549 23.3575L245.94 19.5062V19.5168ZM222.151 6.52362L233.262 5.90991L238.289 15.8347L235.58 21.7069L219.981 28.9124L218.425 11.8034L222.151 6.52362ZM216.341 14.766L217.716 29.96L211.494 32.8379L207.546 27.2301L216.341 14.7555V14.766ZM204.679 27.2301L200.731 32.8379L194.509 29.96L195.884 14.766L204.679 27.2301ZM173.936 15.8452L178.963 5.9205L190.064 6.53421L193.8 11.8246L192.244 28.9336L176.645 21.7281L173.936 15.8558V15.8452ZM166.274 19.5168L158.665 23.3681L156.697 15.1892L166.274 19.5168ZM134.769 15.4855L138.971 7.17963L153.998 13.9724L156.527 24.458L148.051 28.7538L139.807 24.0347L139.754 23.802L139.51 23.7491L134.78 15.4961L134.769 15.4855ZM126.938 23.4951L137.754 25.77L140.029 36.5941L135.288 41.3343H122.197V28.2459L126.949 23.4951H126.938ZM101.328 20.5537L110.429 14.6073L110.588 14.766L110.747 14.6073L119.848 20.5537V27.2618L110.588 36.52L101.328 27.2618V20.5431V20.5537ZM98.9894 28.2459V41.3343H85.8987L81.147 36.5941L83.4117 25.77L94.2378 23.5057L98.9894 28.2564V28.2459ZM82.1947 7.16901L86.3855 15.4749L81.655 23.7279L81.4222 23.7702L81.3693 24.003L73.1148 28.7326L64.6381 24.4474L67.1673 13.9619L82.1947 7.16901ZM54.8914 19.5168L64.4688 15.1892L62.5004 23.3681L54.8914 19.5168ZM31.091 6.513L42.2028 5.89932L47.2296 15.8241L44.5098 21.6964L28.911 28.9019L27.3553 11.7928L31.091 6.50244V6.513ZM20.4343 32.8273L16.4763 27.2195L25.2705 14.7555L26.6463 29.9494L20.4237 32.8273H20.4343ZM29.7576 38.213L29.1332 31.3884L42.9859 24.987L36.5834 38.8372L29.7576 38.213ZM39.0703 39.0594L46.2771 23.4634L52.1505 20.7547L62.0771 25.7806L61.4633 36.8798L56.1719 40.6148L39.0703 39.0594ZM59.7701 40.9428L63.7386 38.1495L64.3523 26.9338L73.1889 31.4095L80.7343 27.0926L78.586 37.3559L82.5757 41.3343H76.9351L70.7549 50.7935L64.6063 41.3872L59.7701 40.9428ZM35.1442 47.5452L38.0227 41.3237L53.2194 42.6992L40.753 51.4918L35.1442 47.5452ZM56.8175 43.0272L63.2623 43.6091L69.3474 52.9202L63.2623 62.2313L56.8175 62.8132L42.7743 52.9096L56.8069 43.006L56.8175 43.0272ZM35.1442 58.3058L40.753 54.3486L53.23 63.1412L38.0332 64.5167L35.1548 58.2952L35.1442 58.3058ZM64.6063 64.4638L70.7549 55.0575L76.9351 64.5273H82.5863L78.5966 68.5162L80.7449 78.769L73.21 74.452L64.3735 78.9276L63.7491 67.7015L59.7912 64.9081L64.6169 64.4744L64.6063 64.4638ZM56.1825 65.2362L61.4739 68.9606L62.0877 80.0704L52.1611 85.0963L46.2877 82.3876L39.0809 66.7916L56.1825 65.2362ZM29.7576 67.638L36.594 67.0137L42.9965 80.864L29.1332 74.4626L29.7576 67.638ZM16.4763 78.6208L20.4237 73.0236L26.6463 75.9016L25.2705 91.0955L16.4763 78.6314V78.6208ZM27.3553 94.037L28.911 76.9385L44.5098 84.144L47.219 90.0057L42.1922 99.9305L31.0804 99.3167L27.3447 94.0264L27.3553 94.037ZM26.6675 114.796L17.2066 108.607L26.604 102.47L27.0484 97.6344L29.8423 101.602L41.0705 102.216L36.594 111.051L40.9117 118.584L30.6571 116.436L26.6675 120.425V114.786V114.796ZM19.8628 136.836L16.7197 133.694L24.3181 126.097V136.847H19.8628V136.836ZM26.6675 136.836V123.748L31.4191 118.997L42.2346 121.261L44.5098 132.085L39.7582 136.826H26.6675V136.836ZM48.7112 136.836H43.0706L47.0603 132.847L44.912 122.584L52.4468 126.901L61.6009 122.277L62.4898 125.599L58.606 132.318L65.6434 136.381H57.5159V144.147L55.0819 146.57L48.7112 136.815V136.836ZM26.6675 143.629V139.174H37.4194L29.8105 146.782L26.6675 143.64V143.629ZM40.7318 139.174H47.4518L53.3993 148.274L53.2405 148.433L53.3993 148.591L47.4624 157.691H40.7424L31.4826 148.433L40.7424 139.174H40.7318ZM26.6675 157.691V153.236L29.8105 150.083L37.4089 157.68H26.6569L26.6675 157.691ZM16.7197 163.182L19.8628 160.04H24.3181V170.79L16.7197 163.193V163.182ZM26.6675 173.117V160.029H39.7582L44.5098 164.78L42.2346 175.604L31.4191 177.868L26.6675 173.117ZM26.604 194.406L17.196 188.259L26.6569 182.079V176.429L30.6465 180.418L40.8906 178.27L36.5728 185.804L41.0493 194.639L29.8317 195.252L27.0379 199.21L26.604 194.385V194.406ZM31.091 197.548L42.2028 196.935L47.2296 206.859L44.5204 212.732L28.9216 219.937L27.3659 202.839L31.091 197.559V197.548ZM20.4448 223.852L16.4975 218.244L25.2917 205.77L26.6675 220.964L20.4448 223.842V223.852ZM29.7682 229.238L29.1438 222.403L42.9965 216.001L36.594 229.862L29.7682 229.238ZM39.0703 230.084L46.2771 214.488L52.1505 211.779L62.0771 216.805L61.4633 227.915L56.1719 231.65L39.0703 230.095V230.084ZM59.7806 231.968L63.7491 229.164L64.3629 217.937L73.1995 222.403L80.7449 218.086L78.5966 228.338L82.5863 232.327H76.9457L70.7654 241.787L64.6275 232.391L59.7912 231.957L59.7806 231.968ZM35.1548 238.57L38.0332 232.348L53.2194 233.724L40.753 242.517L35.1548 238.57ZM56.8175 234.052L63.2729 234.634L69.3579 243.945L63.2729 253.256L56.8175 253.838L42.7849 243.945L56.8175 234.052ZM38.0332 255.552L37.4935 254.367L35.1653 249.331L39.663 246.156L40.7636 245.373L53.23 254.155L38.0438 255.531L38.0332 255.552ZM64.6169 255.489L70.7549 246.093L76.9351 255.541H82.5757L78.586 259.53L80.7343 269.794L73.1995 265.477L64.3629 269.942L63.7491 258.726L59.7806 255.933L64.6169 255.489ZM56.1719 256.25L61.4633 259.985L62.0771 271.095L52.1505 276.121L46.2771 273.412L39.0703 257.816L56.1719 256.261V256.25ZM29.7682 258.652L36.594 258.028L42.9965 271.889L29.1438 265.487L29.7682 258.652ZM16.4869 269.646L20.4343 264.048L26.6569 266.926L25.2811 282.12L16.4869 269.646ZM27.3659 285.072L28.9216 267.963L44.5204 275.169L47.2296 281.041L42.2028 290.966L31.091 290.352L27.3659 285.072ZM26.6675 305.811L17.2066 299.631L26.604 293.495L27.0379 288.67L29.8317 292.627L41.0493 293.241L36.5834 302.065L40.9011 309.609L30.6465 307.461L26.6675 311.45V305.811ZM19.8628 327.861L16.7197 324.718L24.3181 317.111V327.861H19.8628ZM26.6675 314.762L31.4085 310.022L42.2346 312.286L44.5098 323.11L39.7582 327.861H26.6675V314.772V314.762ZM48.7006 327.861H43.06L47.0497 323.872L44.9014 313.609L52.4363 317.926L61.5903 313.302L62.4792 316.624L58.606 323.343L65.6434 327.406H57.5054V335.172L55.0819 337.595L48.7112 327.85L48.7006 327.861ZM86.5019 339.457L69.7072 349.149H59.8547V342.759L56.5529 339.447L59.8547 336.146V329.755H69.7072L86.5125 339.457H86.5019ZM74.3847 329.755H91.0842L94.1426 335.045L88.8512 338.092L74.3847 329.744V329.755ZM88.8406 340.812L94.132 343.87L91.0842 349.16H74.3953L88.8512 340.812H88.8406ZM100.884 375.644V358.958L106.175 355.9L109.233 361.19L100.884 375.644ZM114.99 355.9L120.282 358.958V375.654L111.932 361.19L114.98 355.9H114.99ZM84.089 365.952L92.4388 351.488H98.5555V357.603L84.0996 365.952H84.089ZM80.0253 368.3L71.4956 373.221L68.2997 367.687L63.7809 366.481L64.9873 361.963L61.7913 356.429L70.321 351.498H89.719L80.0147 368.3H80.0253ZM52.214 400.201L52.1611 400.223L49.4837 401.429H49.5154L47.8222 402.233L48.6053 400.54V400.561L49.6953 398.191L49.8647 397.831L55.7275 384.87L68.2044 381.865L65.199 394.34L52.2352 400.201H52.214ZM64.4793 397.218L62.511 405.397L54.902 401.545L64.4899 397.218H64.4793ZM48.4783 395.144L44.6262 387.536L52.8067 385.568L48.4783 395.144ZM43.5362 385.378L39.2503 376.903L43.9807 368.65L44.2135 368.597L44.2664 368.364L52.5209 363.634L60.8283 367.824L54.0342 382.849L43.5468 385.378H43.5362ZM56.9127 382.161L63.0083 368.692L66.7546 369.697L69.8236 374.998L68.7865 379.304L56.9127 382.161ZM72.0989 375.58L77.6865 372.353L74.4588 377.95L71.3475 378.701L72.0989 375.591V375.58ZM65.6434 351.498L58.5954 355.572L62.4686 362.291L61.5797 365.602L52.4257 360.979L44.8908 365.296L47.0497 355.043L43.06 351.054H48.7006L55.0713 341.309L57.4948 343.743V351.498H65.6329H65.6434ZM26.6675 334.654V330.199H37.4194L29.8211 337.796L26.678 334.654H26.6675ZM26.6675 348.716V344.261L29.8105 341.119L37.4089 348.716H26.6569H26.6675ZM31.4614 339.457L40.7212 330.199H47.4307L53.3781 339.299L53.2194 339.457L53.3781 339.616L47.4307 348.716H40.7107L31.4508 339.457H31.4614ZM16.7197 354.196L19.8628 351.054H24.3181V361.804L16.7197 354.196ZM26.6675 364.142V351.054H39.7582L44.5098 355.805L42.2346 366.618L31.4085 368.882L26.6675 364.142ZM26.604 385.42L17.196 379.273L26.6569 373.094V367.454L30.636 371.443L40.9011 369.285L36.5834 376.829L41.0599 385.664L29.8423 386.277L27.0379 390.245L26.604 385.41V385.42ZM31.1016 388.563L42.2028 387.949L47.2296 397.874L44.5204 403.746L28.9321 410.951L27.3765 393.853L31.1122 388.563H31.1016ZM20.4448 414.877L16.4975 409.269L25.2917 396.805L26.6675 411.999L20.4448 414.877ZM29.7788 420.263L29.1544 413.438L43.0071 407.037L36.6046 420.887L29.7788 420.263ZM61.4739 418.929L56.1825 422.664L39.0703 421.109L46.2771 405.513L52.1505 402.794L62.0771 407.82L61.4633 418.929H61.4739ZM86.396 397.525L81.5704 405.957L73.136 410.782L64.6592 406.497L67.1885 396.001L82.2053 389.208L86.4066 397.514L86.396 397.525ZM67.8764 393.112L70.7337 381.241L75.0408 380.204L80.3428 383.272L81.3481 387.018L67.8764 393.112ZM93.6134 388.235L88.0787 385.05L83.5599 386.256L82.3429 381.738L76.8081 378.543L81.7291 370.015L98.5344 360.312V379.707L93.6029 388.235H93.6134ZM120.292 390.181H113.9L110.599 393.483L107.286 390.171H100.894V380.32L110.599 363.529L120.303 380.331V390.181H120.292ZM144.357 378.532L138.823 381.727L137.616 386.245L133.087 385.039L127.552 388.224L122.631 379.696V360.301L139.426 369.993L144.347 378.521L144.357 378.532ZM150.845 351.498L159.374 356.429L156.178 361.963L157.395 366.481L152.876 367.687L149.68 373.221L141.151 368.3L131.446 351.498H150.845ZM128.737 351.498L137.087 365.952L122.631 357.614V351.498H128.737ZM161.321 329.755V336.146L164.634 339.447L161.321 342.759V349.149H151.469L134.674 339.447L151.479 329.744H161.321V329.755ZM146.791 349.149H130.092L127.034 343.859L132.325 340.801L146.781 349.149H146.791ZM132.335 338.103L127.044 335.045L130.102 329.755H146.802L132.346 338.103H132.335ZM120.292 329.755H127.393L123.848 335.902L129.997 339.447L123.848 343.002L127.393 349.149H120.303V356.249L114.154 352.694L110.609 358.841L107.064 352.694L100.915 356.238V349.139H93.8145L97.3597 342.991L91.2217 339.447L97.3703 335.902L93.8145 329.755H100.915V322.666L107.064 326.21L110.62 320.063L114.165 326.21L120.314 322.666V329.765L120.292 329.755ZM156.178 316.963L159.374 322.496L150.845 327.416H131.436L141.14 310.625L149.67 305.694L152.866 311.238L157.385 312.445L156.168 316.973L156.178 316.963ZM181.926 302.012L177.1 310.445L168.666 315.28L160.358 311.08L167.152 296.066L177.65 293.537L181.936 302.012H181.926ZM168.359 293.357L172.687 283.781L176.539 291.389L168.359 293.357ZM190.074 290.352L178.963 290.966L173.936 281.041L176.645 275.169L192.244 267.963L193.8 285.062L190.074 290.352ZM215.431 292.151L206.118 298.235L196.805 292.151L196.223 285.707L206.128 271.667L216.023 285.697L215.441 292.14L215.431 292.151ZM238.289 281.041L233.262 290.966L222.151 290.352L218.415 285.062L219.971 267.963L235.559 275.169L238.279 281.041H238.289ZM252.523 259.985L253.137 271.095L243.21 276.121L237.337 273.412L230.13 257.816L247.231 256.261L252.523 259.996V259.985ZM218.669 256.504L217.939 264.45L210.7 261.107L206.107 267.614L201.514 261.107L194.276 264.45L193.556 256.504L185.619 255.774L188.963 248.548L182.455 243.956L188.963 239.363L185.619 232.126L193.556 231.396L194.276 223.45L201.514 226.794L206.107 220.276L210.7 226.794L217.939 223.45L218.658 231.386L226.595 232.116L223.251 239.342L229.77 243.945L223.251 248.537L226.595 255.764L218.658 256.494L218.669 256.504ZM229.082 255.552L226.204 249.341L231.813 245.395L244.279 254.177L229.082 255.552ZM254.332 234.645L260.417 243.956L254.332 253.256L247.888 253.838L233.855 243.945L247.888 234.041L254.332 234.623V234.645ZM231.813 242.517L226.204 238.559L229.082 232.348L244.279 233.724L231.813 242.517Z" fill="url(#paint0_radial_502_169)"/>
</g>
<defs>
<filter id="filter0_d_502_169" x="0.632473" y="0.544158" width="442.823" height="504.823" filterUnits="userSpaceOnUse" color-interpolation-filters="sRGB">
<feFlood flood-opacity="0" result="BackgroundImageFix"/>
<feColorMatrix in="SourceAlpha" type="matrix" values="0 0 0 0 0 0 0 0 0 0 0 0 0 0 0 0 0 0 127 0" result="hardAlpha"/>
<feOffset dx="-4.45584" dy="4.45584"/>
<feGaussianBlur stdDeviation="4.45584"/>
<feColorMatrix type="matrix" values="0 0 0 0 0.227451 0 0 0 0 0.156863 0 0 0 0 0.00392157 0 0 0 0.2 0"/>
<feBlend mode="normal" in2="BackgroundImageFix" result="effect1_dropShadow_502_169"/>
<feBlend mode="normal" in="SourceGraphic" in2="effect1_dropShadow_502_169" result="shape"/>
</filter>
<radialGradient id="paint0_radial_502_169" cx="0" cy="0" r="1" gradientUnits="userSpaceOnUse" gradientTransform="translate(110.013 149.001) rotate(-135.005) scale(446.231 446.231)">
<stop stop-color="#E7C34F"/>
<stop offset="1" stop-color="#E1A94E"/>
</radialGradient>
</defs>
</svg>
