<svg width="102" height="58" viewBox="0 0 102 58" fill="none" xmlns="http://www.w3.org/2000/svg">
<path fill-rule="evenodd" clip-rule="evenodd" d="M0 42.18V1.15694C0 0.517978 0.517979 0 1.15694 0H21.7069C22.0353 0 22.3482 0.139554 22.5676 0.383868L31.2786 10.0826C31.4693 10.295 31.5748 10.5703 31.5748 10.8557V42.18C31.5748 42.819 31.0568 43.337 30.4178 43.337H24.826C24.187 43.337 23.669 42.819 23.669 42.18V26.4843C23.669 25.5746 22.6675 25.0207 21.897 25.5044L8.54402 33.8859C8.20683 34.0976 8.00215 34.4677 8.00215 34.8658V42.18C8.00215 42.819 7.48417 43.337 6.84521 43.337H1.15694C0.517979 43.337 0 42.819 0 42.18ZM9.23577 24.2296L23.9563 14.9611C24.411 14.6748 24.4988 14.0482 24.1404 13.6479L19.2999 8.24279C19.1353 8.05898 18.9003 7.95395 18.6535 7.95395H8.77344C8.29422 7.95395 7.90574 8.34243 7.90574 8.82165V23.4953C7.90574 24.1781 8.65794 24.5934 9.23577 24.2296Z" fill="white"/>
<path fill-rule="evenodd" clip-rule="evenodd" d="M43.3852 43.337C44.0241 43.337 44.5421 42.819 44.5421 42.18V29.984C44.5421 29.345 45.0601 28.827 45.699 28.827H53.1255C53.4324 28.827 53.7267 28.9489 53.9436 29.1659L60.1593 35.3816C60.3763 35.5986 60.4982 35.8928 60.4982 36.1997V42.18C60.4982 42.819 61.0162 43.337 61.6551 43.337H67.0542C67.6931 43.337 68.2111 42.819 68.2111 42.18V32.6835C68.2111 32.6526 68.1988 32.623 68.177 32.6012L68.047 32.4712C68.0468 32.471 68.0467 32.4709 68.0465 32.4707L64.5674 28.9916C64.5067 28.9309 64.5497 28.827 64.6356 28.827H67.0957C67.7117 28.827 68.2111 28.3276 68.2111 27.7116V10.6187C68.2111 10.3309 68.1038 10.0534 67.9102 9.84045L59.3963 0.475109C59.177 0.233917 58.8662 0.0964115 58.5402 0.0964115H37.7464C37.1069 0.0964115 36.5887 0.615177 36.5894 1.25464L36.6351 42.1813C36.6358 42.8198 37.1535 43.337 37.792 43.337H43.3852ZM59.5823 20.9695H45.3134C44.8874 20.9695 44.5421 20.6242 44.5421 20.1982V8.53241C44.5421 8.10644 44.8874 7.76112 45.3134 7.76112H55.1417C55.3601 7.76112 55.5683 7.8537 55.7145 8.01588L60.1551 12.94C60.2828 13.0817 60.3536 13.2658 60.3536 13.4566V20.1982C60.3536 20.6242 60.0083 20.9695 59.5823 20.9695Z" fill="white"/>
<path d="M73.8945 19.2764C73.8947 19.2765 73.8949 19.2767 73.8951 19.2768L75.9128 20.3438L75.9132 20.3441L77.8644 21.3759C78.0019 21.4487 78.0012 21.6459 77.8631 21.7175L73.9041 23.7732C73.9037 23.7734 73.9033 23.7736 73.9029 23.7738C73.4564 24.0062 73.1763 24.4677 73.1763 24.9711V41.9955C73.1763 42.7377 73.7755 43.3407 74.5177 43.3452L79.6275 43.3768C80.3762 43.3814 80.9856 42.7757 80.9856 42.027V29.7664C80.9856 29.2506 81.2796 28.7799 81.7431 28.5535L86.6164 26.1735C86.9876 25.9923 87.4214 25.9909 87.7937 26.17L92.7543 28.5557C93.2218 28.7805 93.5191 29.2533 93.5191 29.7721V42.0354C93.5191 42.7809 94.1234 43.3852 94.8689 43.3852H100.075C100.821 43.3852 101.425 42.7809 101.425 42.0354V25.1299C101.425 24.6186 101.136 24.1513 100.679 23.9226L81.7318 14.4491C81.2745 14.2205 80.9856 13.7531 80.9856 13.2419V1.44617C80.9856 0.70072 80.3813 0.0964115 79.6359 0.0964115H74.5261C73.7806 0.0964115 73.1763 0.70072 73.1763 1.44617V18.0836C73.1763 18.5835 73.4526 19.0425 73.8945 19.2764Z" fill="white"/>
<path d="M91.1088 7.27907C90.7361 7.27907 90.434 7.58122 90.434 7.95395V17.0334C90.434 17.289 90.5784 17.5227 90.807 17.637L96.6881 20.5776C97.1368 20.8019 97.6648 20.4756 97.6648 19.9739V15.1848C97.6648 14.8121 97.967 14.5099 98.3397 14.5099H100.654C101.026 14.5099 101.328 14.2078 101.328 13.835V0.819497C101.328 0.446771 101.026 0.144617 100.654 0.144617H94.7725C94.3997 0.144617 94.0976 0.446771 94.0976 0.819497V6.60419C94.0976 6.97691 93.7954 7.27907 93.4227 7.27907H91.1088Z" fill="#E1A12C"/>
<path d="M3.9865 57.8466H1.01025V48.653H4.08077C4.98157 48.653 5.75519 48.8371 6.40161 49.2052C7.04804 49.5703 7.54333 50.0955 7.88749 50.7809C8.23464 51.4632 8.40822 52.2817 8.40822 53.2364C8.40822 54.194 8.23315 55.017 7.883 55.7053C7.53585 56.3937 7.03307 56.9234 6.37468 57.2945C5.71628 57.6626 4.92022 57.8466 3.9865 57.8466ZM2.39737 56.6346H3.91018C4.61048 56.6346 5.19256 56.5029 5.65643 56.2395C6.1203 55.9732 6.46745 55.5886 6.69789 55.0859C6.92833 54.5801 7.04355 53.9636 7.04355 53.2364C7.04355 52.5151 6.92833 51.9031 6.69789 51.4003C6.47044 50.8976 6.13077 50.516 5.67887 50.2556C5.22697 49.9953 4.66584 49.8651 3.99548 49.8651H2.39737V56.6346Z" fill="#E1A12C"/>
<path d="M10.1331 57.8466V48.653H15.8971V49.8471H11.5203V52.6483H15.5963V53.8379H11.5203V56.6525H15.951V57.8466H10.1331Z" fill="#E1A12C"/>
<path d="M18.5535 48.653L21.1123 56.1408H21.2155L23.7743 48.653H25.2736L21.9652 57.8466H20.3626L17.0541 48.653H18.5535Z" fill="#E1A12C"/>
<path d="M26.6012 57.8466V48.653H32.3652V49.8471H27.9884V52.6483H32.0644V53.8379H27.9884V56.6525H32.4191V57.8466H26.6012Z" fill="#E1A12C"/>
<path d="M34.218 57.8466V48.653H35.6052V56.6525H39.771V57.8466H34.218Z" fill="#E1A12C"/>
<path d="M48.9814 53.2498C48.9814 54.2314 48.8019 55.0754 48.4427 55.7817C48.0836 56.4849 47.5913 57.0266 46.9659 57.4067C46.3434 57.7838 45.6356 57.9723 44.8425 57.9723C44.0465 57.9723 43.3357 57.7838 42.7102 57.4067C42.0877 57.0266 41.5969 56.4834 41.2378 55.7772C40.8787 55.0709 40.6991 54.2284 40.6991 53.2498C40.6991 52.2682 40.8787 51.4258 41.2378 50.7225C41.5969 50.0162 42.0877 49.4745 42.7102 49.0975C43.3357 48.7174 44.0465 48.5273 44.8425 48.5273C45.6356 48.5273 46.3434 48.7174 46.9659 49.0975C47.5913 49.4745 48.0836 50.0162 48.4427 50.7225C48.8019 51.4258 48.9814 52.2682 48.9814 53.2498ZM47.6078 53.2498C47.6078 52.5017 47.4866 51.8717 47.2442 51.3599C47.0048 50.8452 46.6756 50.4561 46.2566 50.1928C45.8406 49.9264 45.3692 49.7933 44.8425 49.7933C44.3128 49.7933 43.84 49.9264 43.424 50.1928C43.008 50.4561 42.6788 50.8452 42.4364 51.3599C42.197 51.8717 42.0773 52.5017 42.0773 53.2498C42.0773 53.998 42.197 54.6295 42.4364 55.1442C42.6788 55.656 43.008 56.045 43.424 56.3114C43.84 56.5747 44.3128 56.7064 44.8425 56.7064C45.3692 56.7064 45.8406 56.5747 46.2566 56.3114C46.6756 56.045 47.0048 55.656 47.2442 55.1442C47.4866 54.6295 47.6078 53.998 47.6078 53.2498Z" fill="#E1A12C"/>
<path d="M50.7108 57.8466V48.653H53.9879C54.7031 48.653 55.2957 48.7832 55.7655 49.0436C56.2354 49.304 56.587 49.6601 56.8204 50.112C57.0539 50.5609 57.1706 51.0667 57.1706 51.6293C57.1706 52.1949 57.0524 52.7037 56.816 53.1556C56.5825 53.6045 56.2294 53.9606 55.7565 54.224C55.2867 54.4843 54.6956 54.6145 53.9834 54.6145H51.7299V53.4384H53.8577C54.3096 53.4384 54.6762 53.3606 54.9575 53.2049C55.2388 53.0463 55.4453 52.8309 55.577 52.5585C55.7087 52.2862 55.7745 51.9764 55.7745 51.6293C55.7745 51.2821 55.7087 50.9739 55.577 50.7045C55.4453 50.4352 55.2373 50.2242 54.953 50.0716C54.6717 49.919 54.3006 49.8426 53.8397 49.8426H52.098V57.8466H50.7108Z" fill="#E1A12C"/>
<path d="M58.7968 48.653H60.4802L63.407 55.7996H63.5148L66.4416 48.653H68.125V57.8466H66.8052V51.1938H66.7199L64.0086 57.8332H62.9132L60.2018 51.1894H60.1165V57.8466H58.7968V48.653Z" fill="#E1A12C"/>
<path d="M70.1417 57.8466V48.653H75.9057V49.8471H71.5288V52.6483H75.6049V53.8379H71.5288V56.6525H75.9595V57.8466H70.1417Z" fill="#E1A12C"/>
<path d="M85.1789 48.653V57.8466H83.904L79.2309 51.1041H79.1457V57.8466H77.7585V48.653H79.0424L83.72 55.4046H83.8053V48.653H85.1789Z" fill="#E1A12C"/>
<path d="M86.749 49.8471V48.653H93.8641V49.8471H90.9956V57.8466H89.613V49.8471H86.749Z" fill="#E1A12C"/>
<path d="M100.451 51.0681C100.403 50.6432 100.205 50.314 99.8582 50.0806C99.511 49.8441 99.0741 49.7259 98.5474 49.7259C98.1703 49.7259 97.8441 49.7858 97.5687 49.9055C97.2934 50.0222 97.0794 50.1838 96.9268 50.3903C96.7772 50.5938 96.7024 50.8257 96.7024 51.0861C96.7024 51.3046 96.7532 51.4931 96.855 51.6517C96.9597 51.8103 97.0959 51.9435 97.2635 52.0513C97.4341 52.156 97.6166 52.2443 97.8111 52.3161C98.0057 52.3849 98.1927 52.4418 98.3723 52.4867L99.2701 52.7201C99.5634 52.7919 99.8641 52.8892 100.172 53.0119C100.481 53.1346 100.766 53.2962 101.03 53.4967C101.293 53.6972 101.506 53.9456 101.667 54.2419C101.832 54.5382 101.914 54.8928 101.914 55.3058C101.914 55.8266 101.779 56.2889 101.51 56.6929C101.244 57.097 100.856 57.4157 100.347 57.6491C99.8417 57.8825 99.2297 57.9993 98.5114 57.9993C97.8231 57.9993 97.2276 57.89 96.7248 57.6716C96.222 57.4531 95.8285 57.1433 95.5442 56.7423C95.2599 56.3383 95.1028 55.8595 95.0728 55.3058H96.4644C96.4914 55.638 96.5991 55.9148 96.7877 56.1363C96.9792 56.3548 97.2231 56.5179 97.5194 56.6256C97.8186 56.7303 98.1463 56.7827 98.5025 56.7827C98.8945 56.7827 99.2432 56.7214 99.5484 56.5987C99.8567 56.473 100.099 56.2994 100.276 56.0779C100.452 55.8535 100.54 55.5916 100.54 55.2924C100.54 55.02 100.463 54.7971 100.307 54.6235C100.154 54.4499 99.9464 54.3063 99.6831 54.1925C99.4227 54.0788 99.1279 53.9786 98.7987 53.8918L97.7124 53.5955C96.9762 53.395 96.3926 53.1002 95.9617 52.7111C95.5337 52.3221 95.3197 51.8073 95.3197 51.1669C95.3197 50.6372 95.4634 50.1748 95.7507 49.7798C96.038 49.3848 96.427 49.078 96.9178 48.8595C97.4086 48.6381 97.9623 48.5273 98.5788 48.5273C99.2013 48.5273 99.7504 48.6366 100.226 48.855C100.705 49.0735 101.082 49.3743 101.358 49.7573C101.633 50.1374 101.776 50.5744 101.788 51.0681H100.451Z" fill="#E1A12C"/>
</svg>
