<svg width="201" height="190" viewBox="0 0 201 190" fill="none" xmlns="http://www.w3.org/2000/svg">
<path d="M149.57 181.448C144.199 184.29 138.712 186.155 133.111 187.064C127.518 187.973 121.436 187.729 114.887 186.338C114.047 186.162 113.611 185.979 113.573 185.788C113.542 185.605 114.07 185.368 115.155 185.077C117.401 184.604 119.541 184.107 121.596 183.58C123.667 183.052 125.791 182.403 127.969 181.616C130.17 180.836 132.523 179.881 135.037 178.75C137.559 177.635 140.401 176.191 143.557 174.433C148.05 172.011 152.13 168.863 155.767 164.996C159.412 161.145 162.721 157.011 165.678 152.595C168.635 148.194 171.287 143.716 173.655 139.169C176.016 134.638 178.171 130.405 180.097 126.47C181.243 124.223 182.542 122.099 183.986 120.128C185.43 118.164 186.936 116.475 188.479 115.069C190.023 113.671 191.566 112.616 193.117 111.921C194.668 111.218 196.151 110.981 197.564 111.195C198.428 111.31 199.062 111.753 199.498 112.502C199.926 113.258 200.162 114.152 200.208 115.191C200.247 116.238 200.155 117.346 199.941 118.5C199.735 119.677 199.437 120.724 199.062 121.625C198.68 122.542 198.267 123.261 197.824 123.788C197.381 124.33 196.953 124.506 196.548 124.338C196.281 124.216 196.09 123.979 195.983 123.62C195.883 123.268 195.738 122.909 195.555 122.535C195.371 122.168 195.135 121.824 194.837 121.495C194.531 121.182 194.111 120.961 193.545 120.831C192.705 120.663 191.818 120.831 190.901 121.327C189.984 121.832 189.106 122.473 188.288 123.253C187.463 124.04 186.722 124.865 186.065 125.713C185.4 126.569 184.941 127.257 184.674 127.776C182.832 130.932 181.09 134.203 179.455 137.603C177.812 141.019 176.192 144.419 174.588 147.827C172.975 151.242 171.325 154.604 169.628 157.913C167.94 161.237 166.098 164.355 164.112 167.273C162.132 170.2 159.947 172.882 157.555 175.32C155.156 177.765 152.505 179.813 149.57 181.463V181.448Z" fill="white"/>
<path d="M133.173 131.115C132.967 129.587 132.577 128.082 132.004 126.607C131.859 126.324 131.66 125.935 131.393 125.43C131.125 124.949 130.789 124.536 130.361 124.208C129.933 123.887 129.421 123.696 128.841 123.665C128.26 123.627 127.603 123.864 126.846 124.353C123.988 127.012 121.574 129.029 119.602 130.405C117.631 131.788 116.271 132.422 115.522 132.3C115.109 132.346 114.628 132.231 114.07 131.941C113.528 131.666 113.008 131.436 112.504 131.268C111.999 131.108 111.587 131.054 111.258 131.115C110.93 131.184 110.792 131.566 110.861 132.285C111.037 134.111 111.396 135.922 111.931 137.725C112.466 139.544 112.978 141.118 113.474 142.463C112.282 143.991 110.983 145.481 109.562 146.963C108.141 148.438 106.628 149.76 105 150.914C99.7966 154.597 91.8727 155.987 88.8468 148.919C88.3807 147.842 88.1362 146.604 88.1209 145.19C88.1362 144.037 87.8535 143.379 87.2957 143.211C86.7379 143.059 86.0731 143.166 85.3166 143.54C84.5525 143.922 83.8189 144.457 83.0854 145.129C82.3595 145.817 81.8399 146.382 81.5113 146.833C80.709 147.888 79.6774 149.301 78.4472 151.059C77.2094 152.824 75.7728 154.597 74.1529 156.362C72.5253 158.142 70.7144 159.739 68.7124 161.145C64.1965 164.316 58.1523 164.675 52.9334 163.331C49.9075 162.559 47.0268 161.329 44.2989 159.632C41.5787 157.943 39.103 155.85 36.8794 153.344C34.6635 150.845 32.8219 148.079 31.3701 145.03C30.0176 142.241 28.604 138.504 27.1522 133.82C25.7004 129.144 24.1263 124.04 22.43 118.492C20.7413 112.952 18.9074 107.168 16.9284 101.124C14.9569 95.0951 12.8174 89.2878 10.5022 83.7098C9.79918 82.0746 9.1344 80.6534 8.50018 79.4231C7.86597 78.2082 7.23175 77.1231 6.58225 76.168C5.94804 75.2281 5.33675 74.3953 4.74074 73.6541C4.15237 72.9205 3.57929 72.1488 3.01384 71.3464C2.93743 71.2395 2.83809 71.1401 2.70819 71.0561C2.58594 70.9797 2.47896 71.0943 2.37962 71.4076C1.98993 72.485 1.61551 73.5012 1.25638 74.4411C0.897245 75.4039 0.507547 76.4049 0.12549 77.4746C-0.0120508 77.9255 -0.034976 78.2693 0.0490766 78.5368C0.14077 78.8119 0.247745 79.0258 0.385286 79.1863C1.33279 80.149 2.15803 81.1348 2.86102 82.1587C3.57929 83.1979 4.30519 84.4663 5.05403 85.9716C7.13242 89.8074 9.01978 93.9108 10.7161 98.2892C12.4201 102.675 14.0171 107.153 15.53 111.73C17.0353 116.315 18.4642 120.899 19.8167 125.492C21.1692 130.092 22.5752 134.493 24.0041 138.68C25.4406 142.875 26.9535 146.787 28.5505 150.417C30.1475 154.054 31.9356 157.202 33.8917 159.869C35.7867 162.444 37.7276 164.752 39.7219 166.777C45.9112 173.096 54.9583 176.519 63.7609 174.403C64.3569 174.257 64.9453 174.089 65.526 173.898C68.6665 172.859 71.5702 171.124 73.9924 168.878C76.5751 166.486 78.4931 163.422 80.5409 160.58C81.519 159.235 82.4206 158.035 83.2611 156.973C84.1017 155.926 84.9651 155.132 85.8286 154.62C86.0196 155.949 86.3864 157.248 86.9365 158.501C87.4867 159.762 88.2126 160.862 89.1295 161.81C90.8641 163.606 93.2328 164.576 95.7086 164.752C99.1853 164.996 102.838 164.095 105.764 162.207C108.752 160.282 111.403 157.966 113.703 155.277C116.011 152.587 118.112 149.668 120.007 146.528C121.902 143.395 123.958 140.346 126.174 137.381C126.617 136.862 127.129 136.365 127.717 135.906C128.321 135.456 128.948 135.203 129.612 135.127C130.162 135.081 130.575 135.089 130.858 135.15C131.133 135.211 131.385 135.318 131.576 135.44C131.775 135.586 131.935 135.685 132.057 135.769C132.195 135.845 132.31 135.884 132.432 135.861C132.799 135.838 133.02 135.769 133.104 135.67C133.188 135.57 133.249 135.402 133.28 135.142C133.425 133.981 133.387 132.621 133.173 131.085V131.115Z" fill="white"/>
<path d="M53.0632 156.866C49.4566 160.511 45.5137 163.4 41.2347 165.547C36.9633 167.694 32.0042 169.031 26.3803 169.566C25.662 169.635 25.2571 169.604 25.1806 169.451C25.1119 169.314 25.471 168.985 26.2733 168.473C27.962 167.526 29.5514 166.586 31.0796 165.638C32.6155 164.691 34.159 163.629 35.7178 162.452C37.2919 161.268 38.9423 159.908 40.6845 158.364C42.4343 156.828 44.3523 154.948 46.4536 152.74C49.4566 149.653 51.9476 146.085 53.8961 142.058C55.8598 138.039 57.4721 133.874 58.7405 129.565C60.009 125.278 61.01 120.999 61.7664 116.743C62.5229 112.502 63.1877 108.551 63.7455 104.891C64.097 102.79 64.6089 100.758 65.2737 98.8014C65.9385 96.8529 66.7255 95.1184 67.6119 93.5902C68.4983 92.0696 69.4764 90.8393 70.5461 89.8842C71.6159 88.929 72.7468 88.3559 73.9464 88.1726C74.6723 88.0503 75.2913 88.2413 75.8338 88.738C76.3687 89.2423 76.7889 89.8994 77.0869 90.7247C77.3849 91.5576 77.5912 92.4745 77.7135 93.4602C77.8434 94.4612 77.8663 95.3781 77.7976 96.1957C77.7211 97.0286 77.5683 97.7163 77.3467 98.2512C77.1251 98.8014 76.8271 99.0535 76.4604 99.0153C76.2158 98.9848 76.0019 98.8395 75.8185 98.5797C75.6504 98.3276 75.4441 98.0754 75.1996 97.8156C74.9551 97.5635 74.68 97.3495 74.359 97.1585C74.0305 96.9828 73.6408 96.9141 73.1517 96.9446C72.4335 97.021 71.7611 97.3801 71.1498 98.0143C70.5385 98.6562 69.9959 99.3974 69.5298 100.23C69.0637 101.071 68.674 101.927 68.3607 102.775C68.0475 103.631 67.8488 104.303 67.7647 104.792C67.0847 107.795 66.5039 110.867 66.0455 114.023C65.587 117.186 65.1438 120.334 64.7083 123.482C64.2727 126.638 63.7913 129.763 63.2641 132.858C62.7445 135.96 62.0492 138.94 61.1934 141.783C60.3452 144.641 59.2601 147.353 57.9459 149.913C56.6316 152.488 55.0117 154.803 53.0708 156.874L53.0632 156.866Z" fill="white"/>
<path d="M40.6997 101.229C40.0808 100.671 39.3167 100.389 38.4227 100.381C37.544 100.381 36.6194 100.855 35.6719 101.802C35.2975 102.215 34.7549 102.88 34.052 103.812C33.3566 104.752 32.5543 105.775 31.6373 106.891C30.7281 108.014 29.7576 109.122 28.7261 110.238C27.6945 111.346 26.6782 112.263 25.6696 112.973C25.2952 113.226 25.066 113.302 24.9743 113.195C24.8902 113.096 24.852 112.843 24.8749 112.439C24.9437 111.659 25.0812 110.872 25.2952 110.1C25.5168 109.329 25.7766 108.626 26.0746 107.999C26.3879 107.372 26.7012 106.822 27.0221 106.349C27.3583 105.882 27.664 105.554 27.9467 105.378C28.1683 105.279 28.3822 105.233 28.6115 105.248C28.8483 105.271 29.0699 105.286 29.2686 105.294C29.4673 105.309 29.6354 105.294 29.7729 105.241C29.9257 105.202 29.9563 105.011 29.8952 104.683C29.8264 104.087 29.7194 103.491 29.5666 102.879C29.4138 102.276 29.0623 101.695 28.5045 101.137C28.0689 100.709 27.5952 100.633 27.0756 100.893C26.5713 101.153 26.2198 101.389 26.0364 101.611C25.3487 102.513 24.7832 103.483 24.3477 104.507C23.9198 105.546 23.5989 106.608 23.4002 107.693C23.2015 108.786 23.1175 109.818 23.1404 110.788C23.171 111.766 23.3009 112.63 23.5148 113.386C23.5377 113.592 23.6447 113.906 23.8357 114.334C24.0268 114.761 24.2713 115.166 24.5464 115.533C24.8444 115.915 25.1882 116.213 25.6085 116.442C26.0287 116.672 26.5407 116.672 27.1444 116.435C28.0919 116.076 29.0088 115.449 29.8952 114.563C30.7968 113.676 31.6373 112.714 32.4244 111.659C33.2191 110.612 33.9908 109.565 34.732 108.511C35.4885 107.464 36.1838 106.547 36.8257 105.768C37.6127 104.881 38.4838 104.392 39.4313 104.301C39.714 104.285 39.6453 104.675 39.225 105.47C38.8124 106.272 38.2393 107.204 37.5057 108.282C36.7798 109.359 35.9775 110.452 35.1064 111.567C34.2353 112.691 33.5018 113.585 32.8905 114.242C32.1722 115.029 31.4081 115.762 30.6058 116.45C29.8035 117.145 29.0317 117.78 28.2676 118.353C27.5188 118.933 26.8081 119.438 26.1434 119.858C25.4862 120.286 24.9437 120.599 24.5311 120.806C24.2866 121.027 24.2484 121.249 24.4165 121.447C24.5693 121.623 24.8367 121.692 25.2111 121.661C25.5856 121.631 25.9141 121.6 26.1892 121.577C27.4194 121.554 28.6879 121.325 30.0098 120.882C31.3241 120.446 32.5848 119.682 33.7539 118.582C34.4799 117.963 35.2669 117.123 36.1151 116.053C36.8792 115.098 37.6051 114.104 38.3081 113.088C38.3921 112.973 38.4762 112.859 38.5526 112.737C38.6366 112.607 38.713 112.484 38.7971 112.362C39.4772 111.346 40.1114 110.345 40.6692 109.374C41.311 108.274 41.7313 107.334 41.9376 106.563C42.3044 105.523 42.3502 104.515 42.0828 103.521C41.823 102.543 41.3798 101.764 40.738 101.206L40.6997 101.229Z" fill="white"/>
<path d="M74.9392 72.6758C74.6794 72.7675 74.2744 73.1037 73.7166 73.6998C71.8445 75.8393 69.7585 77.8412 67.4738 79.698C65.1891 81.5625 62.8433 83.1977 60.4363 84.5884C58.037 85.9791 55.6835 87.11 53.353 87.9658C51.0224 88.8292 48.9517 89.3488 47.1407 89.5093C44.367 83.4422 42.0059 78.2386 40.0268 73.9137C38.0554 69.5888 36.4126 65.9516 35.0906 62.9945C33.7764 60.045 32.7295 57.7298 31.9501 56.0258C31.1784 54.3295 30.6053 53.061 30.2156 52.2129C29.8259 51.3723 29.5814 50.8604 29.4744 50.677C29.3674 50.5089 29.3139 50.486 29.3216 50.5929C29.1 50.1956 28.8784 50.0122 28.6339 50.0351C28.3894 50.058 28.2136 50.5013 28.1143 51.3571C27.9309 51.9378 27.8468 52.6637 27.8698 53.5348C27.9003 54.4211 27.8927 55.0095 27.8468 55.3152C27.2967 54.5893 26.5249 53.9627 25.5316 53.4431C24.5382 52.9311 23.5296 52.786 22.5057 52.9923C21.497 53.2826 20.6871 53.7258 20.0758 54.3295C19.4645 54.9408 18.9831 55.6361 18.624 56.4384C18.2725 57.2331 18.0662 58.0813 17.9974 58.96C17.9363 59.854 17.9363 60.7251 18.0203 61.558C18.3795 65.3098 21.3595 69.6423 26.9452 74.525C32.5461 79.4306 37.0315 84.6648 40.4318 90.2505C38.0707 90.3651 35.5797 90.4797 32.9588 90.602C30.3531 90.7319 27.7399 90.9993 25.1189 91.3966C22.5133 91.8092 19.9612 92.4053 17.4702 93.1923C14.9868 93.9794 12.7021 95.0721 10.6008 96.4475C8.5071 97.8458 6.69615 99.6338 5.16792 101.819C3.63969 104.012 2.53937 106.656 1.85931 109.766C0.843034 113.831 0.583236 117.781 1.07227 121.602C1.56894 125.43 2.35598 129.213 3.43338 132.942C5.03802 136.938 6.89482 140.201 8.98849 142.707C11.0898 145.228 13.237 147.146 15.4453 148.499C17.6459 149.844 19.816 150.7 21.9555 151.074C24.095 151.448 25.9824 151.548 27.6176 151.395C31.6598 150.891 35.2664 149.576 38.4527 147.437C41.6391 145.305 44.3288 142.715 46.5371 139.666C48.7454 136.625 50.4493 133.301 51.6643 129.702C52.8792 126.11 53.5287 122.573 53.6204 119.081C53.6586 116.276 53.4599 113.449 53.032 110.591C52.6118 107.741 52.1304 105.112 51.5879 102.721C51.2211 101.361 50.8543 100.069 50.4952 98.8544C50.1361 97.6395 49.7922 96.585 49.456 95.691C49.1121 94.6365 48.7454 93.7042 48.3633 92.8714C50.7626 92.3518 53.2918 91.4425 55.9662 90.1435C58.6559 88.8522 61.1928 87.3927 63.5921 85.7499C65.9991 84.1223 68.1691 82.3724 70.0947 80.508C72.0203 78.6588 73.4798 76.8861 74.4731 75.1974C74.8017 74.7466 75.0462 74.2958 75.2219 73.8449C75.3977 73.4094 75.4588 73.0808 75.3977 72.8669C75.3442 72.6605 75.1837 72.6071 74.9163 72.6835L74.9392 72.6758ZM32.5385 75.4954C30.6741 73.7914 28.8631 72.141 27.1286 70.5669C25.394 69.0005 23.8582 67.457 22.5133 65.9287C21.1838 64.4158 20.4044 62.8417 20.1828 61.2141C20.0834 60.1902 20.3432 59.1587 20.9392 58.1271C21.5505 57.0955 22.3911 56.5301 23.4761 56.4155C24.6299 56.3162 25.6997 56.6523 26.6854 57.4394C27.6787 58.2341 28.2289 59.2351 28.3435 60.4347C28.3741 60.7404 28.2136 61.0384 27.8392 61.3058C27.4648 61.5962 27.0445 61.7261 26.5555 61.7032C26.1887 61.6802 25.9213 61.5733 25.7455 61.3746C25.5698 61.1836 25.4246 60.9773 25.3176 60.771C25.2106 60.5723 25.096 60.3812 24.989 60.2131C24.8821 60.045 24.714 59.9686 24.4695 59.9839C24.0492 60.0297 23.8047 60.3659 23.7435 60.9772C23.6824 61.5962 23.6671 62.0547 23.6901 62.345C23.7741 63.2008 24.1256 63.8962 24.7598 64.4463C25.394 65.0041 26.1811 65.2257 27.1515 65.1264C28.1219 65.0423 28.9013 64.6297 29.4973 63.8962C30.8727 66.7005 32.2176 69.52 33.5624 72.3473C34.8996 75.1821 36.1986 78.124 37.467 81.1652C36.0534 79.1097 34.4106 77.2223 32.5385 75.5107V75.4954ZM49.456 114.717C49.5171 117.919 49.1427 120.838 48.3251 123.474C47.5075 126.118 46.346 128.456 44.8331 130.489C43.3278 132.529 41.6697 134.286 39.8893 135.761C38.1089 137.243 36.275 138.413 34.3724 139.261C32.4774 140.109 30.7428 140.667 29.1764 140.934C24.8133 141.782 20.8628 141.599 17.3326 140.384C13.8024 139.169 10.8911 137.167 8.60644 134.355C6.32938 131.566 4.78587 128.12 3.96826 124.047C3.15066 119.982 3.33405 115.512 4.51078 110.637C5.24433 107.405 6.55861 104.73 8.46126 102.629C10.3639 100.528 12.5722 98.862 15.0708 97.6471C17.5848 96.4398 20.2439 95.5763 23.0635 95.0491C25.8754 94.5448 28.5651 94.1933 31.102 94.0099C33.6465 93.8265 35.9464 93.7425 37.9866 93.7578C40.0345 93.7807 41.5321 93.7195 42.5025 93.5514C43.4424 96.4016 44.153 98.9308 44.6039 101.139C45.0623 103.355 45.3221 104.876 45.4062 105.724C45.3756 106.771 45.3451 108.131 45.2916 109.812C45.2457 111.5 44.9477 113.48 44.3975 115.749C43.855 118.034 42.9457 120.632 41.662 123.551C40.3936 126.485 38.5597 129.74 36.1451 133.316C35.8777 133.66 35.7936 133.912 35.9006 134.08C36.0076 134.248 36.3743 134.126 37.0086 133.69C41.4099 129.32 44.3976 124.636 45.964 119.661C47.5381 114.695 48.0042 109.521 47.3623 104.15C48.7072 107.993 49.4101 111.516 49.4713 114.71L49.456 114.717Z" fill="white"/>
<path d="M58.7251 54.7624C58.6182 54.7853 58.5876 54.2963 58.6793 53.3106C58.7633 52.3326 58.9009 51.2399 59.0537 50.0326C59.2142 48.8329 59.4128 47.725 59.6497 46.724C59.8866 45.7306 60.1311 45.2187 60.3603 45.1881C60.6125 45.1728 61.2009 45.2263 62.1255 45.3486C63.05 45.4785 64.0128 45.6771 65.0214 45.9446C66.0301 46.2196 66.9164 46.5482 67.7188 46.9302C68.5134 47.3199 68.9413 47.7479 68.9872 48.214C69.0407 48.7718 69.0178 49.5512 68.8955 50.5598C68.7732 51.5837 68.5975 52.5924 68.3606 53.5857C68.1237 54.5867 67.8487 55.4578 67.5583 56.1837C67.2679 56.9173 66.9852 57.2229 66.7331 57.1236C65.6709 56.8103 64.3796 56.4053 62.8666 55.9086C61.3613 55.4196 59.9859 55.0452 58.7328 54.7777L58.7251 54.7624Z" fill="white"/>
<path d="M112.542 82.1882C112.435 82.2111 112.404 81.7221 112.496 80.7364C112.58 79.7583 112.717 78.6656 112.87 77.4583C113.031 76.2587 113.229 75.1507 113.466 74.1497C113.703 73.1564 113.948 72.6444 114.177 72.6139C114.429 72.5986 115.017 72.6521 115.942 72.7743C116.866 72.9042 117.829 73.1029 118.838 73.3703C119.846 73.6454 120.733 73.974 121.535 74.356C122.33 74.7457 122.758 75.1736 122.804 75.6397C122.857 76.1975 122.834 76.9769 122.712 77.9856C122.59 79.0095 122.414 80.0181 122.177 81.0115C121.94 82.0125 121.665 82.8835 121.375 83.6094C121.084 84.343 120.802 84.6487 120.549 84.5493C119.487 84.2361 118.196 83.8311 116.683 83.3344C115.178 82.8453 113.802 82.4709 112.549 82.2035L112.542 82.1882Z" fill="white"/>
<path d="M59.3746 187.622C59.2676 187.645 59.237 187.156 59.3287 186.17C59.4128 185.192 59.5503 184.099 59.7031 182.892C59.8636 181.692 60.0623 180.584 60.2991 179.583C60.536 178.59 60.7805 178.078 61.0098 178.047C61.2619 178.032 61.8503 178.086 62.7749 178.208C63.6994 178.338 64.6622 178.537 65.6709 178.804C66.6795 179.079 67.5659 179.408 68.3682 179.79C69.1629 180.179 69.5908 180.607 69.6366 181.073C69.6901 181.631 69.6672 182.411 69.5449 183.419C69.4227 184.443 69.2469 185.452 69.01 186.445C68.7732 187.446 68.4981 188.317 68.2077 189.043C67.9174 189.777 67.6346 190.082 67.3825 189.983C66.3204 189.67 65.029 189.265 63.5161 188.768C62.0108 188.279 60.6353 187.905 59.3822 187.637L59.3746 187.622Z" fill="white"/>
<path d="M96.6709 45.0813C97.0376 48.9248 96.9842 51.8438 96.5104 53.8305C96.3958 54.3042 96.2735 54.6863 96.1513 54.9843C95.9526 55.4886 95.7921 55.6337 95.6699 55.4351C95.5247 55.2288 95.4483 54.5793 95.4559 53.4942C95.4865 51.2095 95.0662 48.879 94.1951 46.495C92.6822 42.2923 90.8483 38.5405 88.7012 35.2395C86.2254 31.4419 82.5195 26.926 77.5833 21.6918C76.781 20.8436 76.483 19.9878 76.6893 19.1396C76.9414 18.0622 77.4458 16.152 78.1946 13.4011C78.3092 13.0879 78.4773 13.0344 78.7065 13.256C83.0085 17.4968 86.8138 22.3566 90.1071 27.8353C93.9965 34.2691 96.1818 40.0153 96.6709 45.0813Z" fill="white"/>
<path d="M164.333 60.6399C164.7 64.4834 164.647 67.4023 164.173 69.389C164.058 69.8628 163.936 70.2449 163.814 70.5429C163.615 71.0472 163.455 71.1924 163.332 70.9937C163.187 70.7874 163.111 70.1379 163.119 69.0528C163.149 66.7681 162.729 64.4376 161.858 62.0536C160.345 57.8509 158.511 54.0991 156.364 50.7981C153.888 47.0005 150.182 42.4846 145.246 37.2504C144.444 36.4022 144.146 35.5464 144.352 34.6983C144.604 33.6209 145.108 31.7106 145.857 28.9598C145.972 28.6465 146.14 28.593 146.369 28.8146C150.671 33.0554 154.476 37.9152 157.77 43.3939C161.659 49.8277 163.844 55.5738 164.333 60.6399Z" fill="white"/>
<path d="M180.762 47.1602C180.8 47.2366 180.846 47.313 180.869 47.3894C180.869 47.3206 180.869 47.2518 180.869 47.1754L180.754 47.1602H180.762Z" fill="white"/>
<path d="M147.967 108.864C148.815 112.502 150.473 115.757 152.712 118.729C152.765 118.798 152.834 118.859 152.987 119.035C152.895 118.683 152.842 118.462 152.773 118.248C151.81 115.214 151.184 112.12 151.184 108.918C151.184 104.524 152.399 100.459 154.508 96.6386C156.899 92.3137 160.116 88.6536 163.799 85.4137C166.206 83.2972 168.789 81.3716 171.219 79.2779C175.697 75.4191 179.112 70.7886 180.969 65.1341C183.193 58.3717 182.917 51.617 180.64 44.9157C180.64 44.9157 180.64 44.908 180.64 44.9004C180.595 46.2911 180.64 47.7047 180.449 49.0801C179.983 52.4269 178.661 55.4834 177.011 58.4023C174.13 63.5142 170.378 67.9461 166.267 72.0952C163.792 74.5939 161.209 76.9856 158.802 79.5377C155.088 83.4729 151.925 87.8207 149.755 92.8257C147.516 97.9834 146.691 103.309 147.974 108.864H147.967Z" fill="white"/>
<path d="M90.0838 103.369C90.1067 103.423 90.1373 103.476 90.1526 103.522C90.1526 103.469 90.1526 103.423 90.1526 103.377H90.0762L90.0838 103.369Z" fill="white"/>
<path d="M64.1577 149.619C64.7919 152.347 66.0374 154.792 67.7185 157.023C67.7567 157.077 67.8102 157.123 67.9248 157.252C67.856 156.985 67.8102 156.825 67.7643 156.664C67.0384 154.387 66.5723 152.064 66.5723 149.657C66.5723 146.356 67.4816 143.307 69.0633 140.442C70.859 137.194 73.2736 134.451 76.0397 132.021C77.8506 130.432 79.7839 128.988 81.6025 127.421C84.9646 124.525 87.532 121.056 88.9227 116.808C90.5884 111.734 90.3898 106.668 88.6782 101.633C88.6782 101.633 88.6782 101.633 88.6782 101.625C88.6399 102.672 88.6782 103.734 88.533 104.758C88.1815 107.272 87.1881 109.564 85.9503 111.75C83.7878 115.585 80.9759 118.917 77.8889 122.027C76.0321 123.899 74.0989 125.695 72.2879 127.612C69.4989 130.57 67.1225 133.825 65.5026 137.584C63.8215 141.458 63.2026 145.455 64.1654 149.619H64.1577Z" fill="white"/>
<path d="M136.206 19.1543C136.244 19.2307 136.29 19.3071 136.313 19.3835C136.313 19.3148 136.313 19.246 136.313 19.1696L136.198 19.1543H136.206Z" fill="white"/>
<path d="M103.41 80.8586C104.258 84.4957 105.916 87.7508 108.155 90.7233C108.209 90.792 108.278 90.8532 108.43 91.0289C108.339 90.6774 108.285 90.4559 108.216 90.2419C107.254 87.2084 106.627 84.1137 106.627 80.912C106.627 76.5184 107.842 72.4533 109.951 68.6327C112.343 64.3078 115.56 60.6477 119.243 57.4079C121.65 55.2913 124.232 53.3657 126.662 51.2721C131.14 47.4133 134.555 42.7828 136.412 37.1283C138.636 30.3659 138.361 23.6111 136.084 16.9098C136.084 16.9098 136.084 16.9022 136.084 16.8945C136.038 18.2852 136.084 19.6989 135.893 21.0743C135.427 24.4211 134.105 27.4775 132.454 30.3965C129.573 35.5084 125.822 39.9402 121.711 44.0894C119.235 46.588 116.652 48.9797 114.245 51.5318C110.532 55.467 107.368 59.8149 105.198 64.8198C102.959 69.9776 102.134 75.3034 103.418 80.8586H103.41Z" fill="white"/>
<path d="M109.37 166.532C109.707 166.142 110.104 166.157 110.494 166.494C111.793 163.972 113.122 162.818 114.566 162.879C115.529 162.917 116.385 163.514 117.225 164.744C118.066 165.898 118.41 167.281 118.356 168.878C118.333 169.435 118.234 169.993 118.127 170.635C117.47 173.095 116.622 174.349 115.499 174.31C114.536 174.272 113.359 173.669 111.869 172.568C110.54 171.636 109.531 170.711 108.927 169.81C107.942 172.584 106.658 174.7 105.145 176.328C102.555 179.04 99.1695 181.478 94.8369 183.564C91.4825 185.199 89.4499 186.009 88.5636 185.971C88.4031 185.971 86.5387 186.376 82.8251 187.117C78.9434 187.935 76.5135 188.401 75.5507 188.523C74.0989 188.706 73.457 188.683 73.457 188.607C73.457 188.447 74.1982 188.156 75.5813 187.568C79.6464 186.116 85.9274 183.549 94.2486 180.011C100.468 176.954 104.335 174.295 106.115 171.873C106.895 170.459 107.926 168.648 109.37 166.539M116.4 169.688C116.339 169.206 116.041 168.633 115.499 167.968C114.964 167.304 114.414 166.967 113.932 166.944C113.13 166.914 112.48 167.212 111.892 167.907C112.74 168.74 114.001 169.512 115.651 170.375C116.049 170.551 116.209 170.559 116.37 170.482C116.454 170.406 116.461 170.085 116.4 169.68" fill="white"/>
<path d="M154.072 142.988C154.347 142.56 154.752 142.514 155.18 142.797C156.112 140.122 157.266 138.793 158.702 138.648C159.657 138.548 160.597 139.022 161.598 140.122C162.592 141.146 163.127 142.468 163.295 144.058C163.348 144.615 163.333 145.181 163.318 145.83C163.012 148.36 162.347 149.72 161.232 149.834C160.276 149.934 159.023 149.498 157.396 148.612C155.952 147.871 154.821 147.099 154.095 146.289C153.506 149.169 152.528 151.447 151.26 153.273C149.074 156.322 146.064 159.21 142.06 161.877C138.965 163.97 137.063 165.048 136.184 165.14C136.023 165.155 134.235 165.82 130.659 167.073C126.93 168.425 124.592 169.227 123.652 169.48C122.239 169.869 121.605 169.93 121.597 169.854C121.582 169.694 122.269 169.304 123.561 168.524C127.389 166.523 133.242 163.099 140.99 158.438C146.721 154.549 150.182 151.37 151.604 148.726C152.177 147.213 152.941 145.28 154.079 142.988M161.468 145.135C161.339 144.661 160.964 144.142 160.338 143.561C159.711 142.98 159.123 142.72 158.641 142.766C157.847 142.85 157.235 143.232 156.754 144.004C157.717 144.715 159.061 145.303 160.819 145.93C161.232 146.052 161.392 146.029 161.545 145.93C161.614 145.838 161.583 145.525 161.461 145.135" fill="white"/>
<path d="M102.891 133.605C102.891 133.605 102.822 133.59 102.799 133.613C102.799 133.613 102.799 133.628 102.791 133.628C102.012 135.89 100.912 137.976 99.4828 139.886C97.7864 142.171 95.7997 144.287 93.5227 146.251C93.4234 146.335 93.2935 146.389 93.1636 146.396C92.9649 146.412 92.8961 146.32 92.9496 146.121C92.9725 146.045 93.0107 145.961 93.0871 145.854C94.9057 143.241 96.732 140.635 98.5658 138.029C99.2841 137.005 99.819 136.188 100.155 135.569C100.629 134.705 101.042 133.819 101.401 132.91C101.431 132.833 101.401 132.742 101.317 132.703C100.339 132.222 99.3834 131.733 98.4359 131.213C97.6107 130.763 97.1675 130.014 97.1064 128.952C96.9994 127.064 97.519 125.467 98.6805 124.153C99.2917 123.465 99.8954 123.022 100.499 122.831C101.416 122.541 102.203 122.892 102.868 123.87C103.219 124.39 103.479 125.093 103.647 125.987C103.922 127.408 103.938 128.829 103.701 130.258C103.693 130.312 103.716 130.373 103.769 130.411L105.114 131.443C105.16 131.481 105.183 131.542 105.168 131.603L104.45 134.476C104.427 134.568 104.327 134.621 104.236 134.598C104.213 134.598 104.19 134.583 104.167 134.568L102.891 133.582V133.605ZM99.521 128.187C100.216 128.6 101.011 129.005 101.913 129.402C101.943 129.418 101.981 129.402 101.997 129.372C101.997 129.364 101.997 129.357 101.997 129.341C101.966 128.585 101.829 127.92 101.576 127.355C101.431 127.018 101.217 126.751 100.935 126.56C100.667 126.377 100.362 126.323 100.002 126.399C99.5363 126.506 99.0931 126.72 98.6881 127.041C98.6346 127.08 98.6193 127.148 98.6499 127.209C98.8639 127.653 99.1542 127.981 99.5133 128.195L99.521 128.187Z" fill="#E1A12C"/>
<path d="M113.153 31.451C113.329 32.0928 113.42 32.0775 113.428 31.4204C113.481 28.2187 112.992 25.1394 111.953 22.1823C111.64 21.2882 110.945 19.7753 109.875 17.6511C109.019 15.9624 108.316 14.4494 107.751 13.1275C106.329 9.7883 106.528 6.58666 108.331 3.5302C109.722 1.17673 111.808 0 114.582 0C115.216 0 115.881 0.366777 116.568 1.10033C117.615 2.21593 118.227 3.54551 118.395 5.08138C118.67 7.53419 118.731 9.99461 118.57 12.4627C118.57 12.5697 118.525 12.6614 118.456 12.7225C118.196 12.9747 118.005 12.8906 117.883 12.4627C117.791 12.1494 117.638 11.3853 117.44 10.1627C117.218 8.81023 116.782 7.40426 116.141 5.96008C115.789 5.15776 115.277 4.55412 114.612 4.15678C113.978 3.77473 113.252 3.62191 112.435 3.68304C111.479 3.75945 110.616 4.12624 109.844 4.79866C109.409 5.17308 109.141 5.6468 109.042 6.20461C108.966 6.62487 108.996 7.21323 109.118 7.96206C109.202 8.46637 109.355 9.03184 109.584 9.65077C110.303 11.668 111.067 13.4255 111.861 14.9155C113.558 18.0866 114.536 21.3494 114.796 24.7115C115.132 29.0134 114.735 33.2466 113.611 37.4034C113.581 37.5104 113.527 37.5944 113.458 37.6479C113.183 37.8466 113.008 37.7625 112.916 37.3881C112.289 34.7748 111.457 32.3832 110.417 30.2131C109.47 28.2569 108.186 26.4231 106.566 24.7115C106.559 24.6962 106.505 24.6274 106.413 24.4975C106.314 24.36 106.207 24.3982 106.077 24.6045C106.001 24.7344 105.833 24.7726 105.71 24.6962C105.695 24.6885 105.68 24.6733 105.665 24.6656C104.045 23.1603 102.127 22.0829 99.9184 21.4181C99.6433 21.3341 99.4446 21.0972 99.3988 20.7992L98.65 15.5192C98.5812 15.0378 98.7799 14.8162 99.2536 14.862C101.492 15.0607 103.487 15.8783 105.244 17.3225C106.964 18.7361 108.454 20.6158 109.714 22.9693C111.235 25.8041 112.381 28.6314 113.138 31.4662L113.153 31.451Z" fill="#E1A12C"/>
<path d="M94.0196 66.8229C94.2946 66.3033 94.4704 65.7455 94.5468 65.1571C94.5468 65.1112 94.585 65.0807 94.6308 65.0883C94.7913 65.1036 94.8677 65.2106 94.8677 65.4093C94.8677 66.8916 94.5162 68.1982 93.8056 69.3291C93.4617 69.8716 92.9727 70.2002 92.3385 70.3072C91.9412 70.376 91.5744 70.3454 91.2305 70.2079C90.8714 70.0703 90.5658 69.8335 90.3136 69.5049C89.9621 69.0464 89.7099 68.5421 89.5571 67.9767C89.2591 66.8916 89.2056 65.7913 89.4119 64.6833C89.8246 62.4445 90.604 60.3432 91.7578 58.3871C91.7578 58.3871 91.7807 58.3335 91.8265 58.2571C91.903 58.1119 91.987 58.0814 92.0787 58.1578C92.1628 58.2342 92.1933 58.3565 92.1551 58.4711C91.796 59.388 91.4674 60.2438 91.1694 61.0385C90.7339 62.2076 90.4817 63.4149 90.4206 64.6604C90.3747 65.5238 90.4893 66.2651 90.7644 66.884C90.9937 67.4112 91.4216 67.7474 92.0481 67.9002C92.499 68.0072 92.9116 67.9537 93.286 67.7245C93.5687 67.5488 93.8209 67.2584 94.0425 66.8382L94.0196 66.8229Z" fill="#E1A12C"/>
<path d="M82.145 170.908C82.061 170.885 81.9999 170.855 81.954 170.809C81.9158 170.771 81.9005 170.709 81.9082 170.618C81.9616 170.09 82.0381 169.571 82.1374 169.051C82.2979 168.226 82.6111 167.462 83.0773 166.759C83.4135 166.255 83.8796 165.934 84.4679 165.796C84.9341 165.682 85.3696 165.72 85.7593 165.888C86.0879 166.033 86.4012 166.308 86.6839 166.698C87.0507 167.202 87.2875 167.768 87.4021 168.394C87.5626 169.281 87.5703 170.167 87.4404 171.053C87.341 171.71 87.1118 172.559 86.7526 173.59C86.2636 175.004 85.6141 176.341 84.8194 177.617C84.7659 177.701 84.7048 177.77 84.636 177.823C84.3915 177.999 84.3075 177.923 84.3992 177.586C84.4221 177.518 84.4527 177.426 84.4985 177.327C85.0105 176.203 85.4689 175.065 85.8663 173.903C86.1566 173.063 86.3247 172.123 86.3706 171.076C86.4012 170.503 86.3247 169.976 86.1566 169.487C85.9809 168.983 85.7058 168.616 85.3314 168.379C84.8729 168.089 84.3686 168.043 83.8184 168.241C83.4975 168.356 83.2224 168.578 83.0008 168.891C82.5882 169.464 82.3361 170.121 82.2291 170.847C82.2291 170.885 82.1909 170.908 82.1527 170.9C82.1527 170.9 82.1527 170.9 82.145 170.9V170.908Z" fill="#E1A12C"/>
<path d="M22.3857 83.006C22.4698 83.0289 22.5309 83.0595 22.5768 83.1053C22.615 83.1435 22.6302 83.2047 22.6226 83.2963C22.5691 83.8236 22.4927 84.3431 22.3934 84.8627C22.2329 85.688 21.9196 86.4521 21.4535 87.1551C21.1173 87.6594 20.6512 87.9803 20.0628 88.1179C19.5967 88.2325 19.1612 88.1943 18.7715 88.0262C18.4429 87.881 18.1296 87.606 17.8469 87.2163C17.4801 86.7119 17.2432 86.1464 17.1286 85.5199C16.9682 84.6335 16.9605 83.7471 17.0904 82.8607C17.1897 82.2036 17.419 81.3555 17.7781 80.3239C18.2672 78.9103 18.9166 77.5731 19.7113 76.297C19.7648 76.213 19.8259 76.1442 19.8947 76.0907C20.1392 75.915 20.2233 75.9914 20.1316 76.3276C20.1087 76.3964 20.0781 76.4881 20.0323 76.5874C19.5203 77.7106 19.0618 78.8492 18.6645 80.0106C18.3741 80.8511 18.206 81.7911 18.1602 82.8379C18.1296 83.411 18.206 83.9382 18.3741 84.4272C18.5499 84.9315 18.825 85.2983 19.1994 85.5351C19.6578 85.8255 20.1622 85.8714 20.7123 85.6727C21.0332 85.5581 21.3083 85.3365 21.5299 85.0233C21.9425 84.4502 22.1947 83.793 22.3017 83.0671C22.3017 83.0289 22.3399 83.006 22.3781 83.0136C22.3781 83.0136 22.3781 83.0136 22.3857 83.0136V83.006Z" fill="#E1A12C"/>
<path d="M135.702 62.7791C134.686 62.6263 134.006 62.122 133.555 61.3502C133.165 60.5708 132.951 59.6462 132.982 58.6376C133.012 57.629 133.158 56.5516 133.494 55.4513C133.761 54.2975 134.166 53.2506 134.579 52.3337C134.984 51.3556 135.419 50.6221 135.794 49.9573C136.176 49.3536 136.466 49.0786 136.718 49.1168C136.848 49.1703 136.856 49.2314 136.795 49.239C136.741 49.3078 136.741 49.3689 136.757 49.4912C135.595 51.7988 135.014 53.6174 135.022 54.9928C135.022 56.3147 135.305 57.2928 135.924 57.8582C136.482 58.4313 137.261 58.6758 138.124 58.5307C138.995 58.4466 139.775 58.0569 140.409 57.4303C140.692 57.0865 140.768 57.2087 140.508 57.7971C140.432 58.3091 140.165 58.8363 139.851 59.4934C139.591 60.0818 139.209 60.6854 138.759 61.228C138.361 61.7017 137.842 62.1296 137.307 62.4964C136.772 62.802 136.275 62.909 135.702 62.7791Z" fill="#E1A12C"/>
<path d="M136.083 153.222C135.067 153.07 134.387 152.565 133.936 151.794C133.547 151.014 133.333 150.09 133.363 149.081C133.394 148.072 133.539 146.995 133.875 145.895C134.143 144.741 134.548 143.694 134.96 142.777C135.365 141.799 135.801 141.066 136.175 140.401C136.557 139.797 136.848 139.522 137.1 139.56C137.23 139.614 137.237 139.675 137.176 139.682C137.123 139.751 137.123 139.812 137.138 139.935C135.977 142.242 135.396 144.061 135.403 145.436C135.403 146.758 135.686 147.736 136.305 148.302C136.863 148.875 137.642 149.119 138.506 148.974C139.377 148.89 140.156 148.5 140.79 147.874C141.073 147.53 141.15 147.652 140.89 148.241C140.813 148.753 140.546 149.28 140.233 149.937C139.973 150.525 139.591 151.129 139.14 151.671C138.743 152.145 138.223 152.573 137.688 152.94C137.153 153.245 136.657 153.352 136.083 153.222Z" fill="#E1A12C"/>
<path d="M188.831 99.4959C188.625 97.9677 188.235 96.4624 187.662 94.9876C187.517 94.7049 187.318 94.3152 187.051 93.8109C186.783 93.3295 186.447 92.9169 186.019 92.5883C185.591 92.2674 185.079 92.0764 184.498 92.0458C183.918 92.0076 183.261 92.2445 182.504 92.7335C179.646 95.3926 177.232 97.4098 175.26 98.7852C173.289 100.168 171.929 100.802 171.18 100.68C170.767 100.726 170.286 100.611 169.728 100.321C169.186 100.046 168.666 99.8168 168.162 99.6487C167.657 99.4882 167.245 99.4348 166.916 99.4959C166.588 99.5647 166.45 99.9468 166.519 100.665C166.695 102.491 167.054 104.302 167.589 106.106C168.123 107.924 168.635 109.498 169.132 110.843C167.94 112.371 166.641 113.861 165.22 115.344C163.799 116.818 162.286 118.14 160.658 119.294C159.03 120.463 157.281 121.418 155.393 122.182C150.427 124.184 144.413 124.307 139.859 121.166C138.155 119.989 136.718 118.461 135.565 116.75C134.464 115.114 133.639 113.258 133.066 111.172C133.792 110.438 134.892 109.33 136.367 107.848C137.842 106.365 139.362 104.585 140.936 102.514C142.518 100.443 143.97 98.1358 145.307 95.5989C146.652 93.0697 147.553 90.3724 148.012 87.507C148.524 84.5422 148.639 81.4399 148.356 78.2C148.081 74.9602 147.729 71.7815 147.309 68.641C147.263 68.1672 147.202 67.8233 147.118 67.617C147.042 67.4184 146.766 67.4489 146.3 67.7317C144.359 69.023 142.358 70.1386 140.31 71.0632C138.262 71.9954 136.375 73.0422 134.655 74.2037C132.936 75.3804 131.469 76.8705 130.239 78.6967C129.016 80.5229 128.275 82.9758 128.015 86.0399C127.801 88.2023 127.732 90.296 127.801 92.3285C127.87 94.3687 127.954 96.172 128.038 97.7461C128.168 99.6411 128.336 101.414 128.55 103.087C128.512 103.225 128.206 103.546 127.633 104.05C127.075 104.562 126.441 105.112 125.73 105.701C125.027 106.297 124.332 106.831 123.644 107.313C122.964 107.809 122.437 108.069 122.07 108.1L121.826 105.555C121.757 104.837 121.658 104.058 121.512 103.217C121.375 102.377 121.214 101.597 121.016 100.871C120.557 99.3354 120.053 98.7776 119.48 99.1979C118.914 99.6258 118.716 100.764 118.892 102.636C118.976 103.553 119.021 104.738 119.006 106.197C119.006 107.664 118.662 108.795 118.005 109.582C117.081 110.721 116.049 111.554 114.903 112.081C107.361 115.55 102.738 108.612 99.9568 102.797C94.9366 92.3132 90.1227 81.6767 82.94 63.8347C81.1367 59.3493 80.1663 53.4122 80.0975 48.7205C80.0746 47.0089 79.8988 45.1979 79.5932 43.3029C79.2799 41.4079 78.7144 39.4136 77.9121 37.3199C77.0945 35.2186 75.8719 33.0332 74.2444 30.7562C73.7859 30.122 73.1288 29.3044 72.2729 28.3339C71.4171 27.3635 70.4009 26.3931 69.2318 25.4227C68.055 24.4675 66.7408 23.5811 65.2813 22.7635C63.8142 21.9688 62.2172 21.4111 60.5056 21.113C58.7787 20.8227 56.9219 20.8532 54.9505 21.2047C52.9791 21.5562 50.9007 22.4121 48.7459 23.7569C46.4841 25.3004 44.826 27.1496 43.7715 29.3044C42.7094 31.4592 42.0293 33.7056 41.7313 36.0438C41.4257 38.3973 41.4027 40.7202 41.6778 43.0278C41.9529 45.3355 42.312 47.4139 42.7705 49.263C43.229 51.1122 43.6798 52.6404 44.123 53.863C44.5585 55.0856 44.7954 55.7198 44.8336 55.7809C45.613 57.7065 46.4917 59.4334 47.4545 60.9387C48.4097 62.4516 49.5788 63.8423 50.9312 65.126C52.2837 66.4097 53.8272 67.6094 55.5541 68.7403C57.2734 69.8712 59.3212 71.0021 61.6976 72.1406C62.6375 72.5685 63.1189 72.729 63.1341 72.6144C63.1341 72.5074 63.0272 72.133 62.7979 71.4987C62.7368 71.1702 62.5916 70.6888 62.3624 70.0546C62.1255 69.4203 61.8886 68.7785 61.6518 68.1443C61.4149 67.5101 61.1857 66.9064 60.9564 66.3333C60.7272 65.7679 60.5973 65.3935 60.5667 65.2025C60.2916 64.6523 60.0471 64.2167 59.8255 63.8882C59.6039 63.5596 59.2601 63.2463 58.8093 62.956C56.7079 61.8021 54.5684 60.6178 52.3754 59.4105C50.1824 58.2108 48.5625 56.8889 47.508 55.4676C46.9884 54.7112 46.6522 53.2746 46.4917 51.1504C46.316 49.0338 46.5147 46.7262 47.0648 44.2505C47.615 41.7747 48.6083 39.3295 50.0831 36.9149C51.5502 34.508 53.6056 32.613 56.2648 31.2605C58.3126 30.1908 60.2152 29.6329 61.9803 29.5718C63.7454 29.5107 65.2889 29.6711 66.6032 30.0608C67.9175 30.4429 68.9873 30.9014 69.8049 31.4515C70.6148 31.9941 71.1115 32.3532 71.2949 32.5289C72.6626 33.8967 73.7248 35.3714 74.4736 36.9379C75.2224 38.5043 75.7955 40.193 76.1929 41.9963C76.5902 43.8073 76.8653 45.771 77.0334 47.9029C77.1938 50.0271 77.3772 52.3347 77.5912 54.8181C78.0038 59.5938 78.2636 64.5453 79.9829 69.0765C81.4805 73.0346 83.1234 77.306 84.9114 81.1419C89.3585 90.7009 93.1256 100.474 97.2595 110.155C98.1688 112.295 99.2462 114.534 100.499 116.841C101.027 117.835 101.661 118.782 102.417 119.676C104.312 121.93 106.78 123.673 109.753 124.07C114.177 124.666 117.875 122.083 121.069 119.355C122.063 118.904 123.079 118.385 124.118 117.789C125.05 117.284 126.051 116.681 127.113 116.001C128.176 115.328 129.276 114.511 130.391 113.533C131.217 116.39 132.241 119.141 133.471 121.755C135.71 126.515 139.248 131.619 144.352 133.583C147.072 134.63 150.106 134.637 152.956 134.026C159.267 132.666 164.784 128.899 169.017 124.116C169.14 123.978 169.27 123.833 169.392 123.688C171.7 120.998 173.801 118.079 175.696 114.939C177.591 111.806 179.646 108.757 181.862 105.792C182.305 105.273 182.817 104.776 183.406 104.317C184.009 103.867 184.636 103.615 185.301 103.538C185.851 103.492 186.264 103.5 186.546 103.561C186.821 103.622 187.073 103.729 187.264 103.851C187.463 103.997 187.624 104.096 187.746 104.18C187.883 104.256 187.998 104.295 188.12 104.272C188.487 104.249 188.709 104.18 188.793 104.081C188.877 103.981 188.938 103.813 188.968 103.553C189.114 102.392 189.075 101.032 188.861 99.4959H188.831ZM130.796 101.689C130.682 100.482 130.605 99.2361 130.575 97.9218C130.544 96.6228 130.636 95.3162 130.842 94.0095C131.056 92.7105 131.431 91.4039 131.973 90.1049C132.516 88.7983 133.349 87.5528 134.449 86.3455C135.121 85.6807 135.924 85.0006 136.864 84.29C137.803 83.5947 138.774 82.9452 139.79 82.3644C140.806 81.7761 141.807 81.3023 142.808 80.9355C143.809 80.5688 144.742 80.4083 145.597 80.4312C145.911 80.4771 145.918 80.9203 145.636 81.7608C145.353 82.609 144.841 83.6864 144.115 84.9701C143.389 86.2614 142.487 87.6903 141.418 89.2491C140.356 90.8155 139.209 92.3973 137.979 93.9714C136.764 95.5531 135.534 97.0201 134.288 98.3955C133.043 99.7633 131.889 100.864 130.804 101.689H130.796Z" fill="white"/>
</svg>
