<svg width="444" height="506" viewBox="0 0 444 506" fill="none" xmlns="http://www.w3.org/2000/svg">
<g filter="url(#filter0_d_250_2)">
<path d="M202.16 265.032L198.191 267.836L197.567 279.052L188.741 274.587L178.931 280.205L179.502 281.2L178.508 280.628L172.888 290.437L177.513 299.579L174.2 300.467L167.48 296.595L163.406 303.642V295.505H155.649L151.363 291.23L147.088 295.505H139.32V303.642L135.256 296.605L128.536 300.478L122.684 298.923L121.118 304.763L114.398 308.646L118.472 315.693L111.424 311.63L107.54 318.349L101.699 319.915L103.265 325.755L99.381 332.474L106.429 336.548H98.291V344.303L94.005 348.589L98.291 352.863V360.629H106.418L99.381 364.692L103.265 371.411L102.376 374.734L93.2218 370.11L83.4117 375.728L83.9832 376.723L82.9884 376.151L77.369 385.96L81.8349 394.795L70.6173 395.419L67.8128 399.387L67.379 394.551L55.8333 387.018L44.2981 394.551L43.8537 399.387L41.0599 395.419L27.2918 394.657L21.0692 406.963L23.1011 411.364L18.6987 409.333L14.0106 411.703V414.327L18.741 411.936L24.6144 414.644L31.8212 430.24L14.7196 431.796L14.0106 431.298V434.219H14.074L28.1067 444.112L14.0635 454.015H14V456.925L14.6984 456.428L31.8106 457.983L24.6038 473.579L18.7304 476.288L14 473.896V476.52L18.6881 478.89L23.0905 476.859L21.0586 481.261L26.4875 491.989H41.6313L43.8537 488.836L44.1394 491.989H46.4888L45.9385 485.884L55.8333 471.854L65.728 485.884L65.1778 491.989H67.5271L67.8128 488.836L70.0352 491.989H87.1792L85.3907 491.556L88.1739 486.054L89.2428 483.938L92.8832 491.979H95.4548L90.6079 481.261L90.3857 480.774L89.3697 478.531V478.552L88.576 476.859L90.2587 477.642H90.2375L92.481 478.668L92.9784 478.901L105.942 484.763L107.688 492H110.101L108.651 485.99L121.964 492H132.452L134.41 490.878L135.055 492H137.764L135.267 487.672L128.547 491.545L125.224 490.656L129.848 481.504L125.541 473.981L135.806 476.129L139.796 472.14V477.79L149.543 484.149L147.109 486.572H139.352V491.989H141.69V488.91H148.082L151.395 485.609L154.707 488.91H161.099V491.989H163.438V486.572H155.67L153.247 484.149L163.004 477.779V472.14L166.983 476.129L177.248 473.981L172.93 481.514L177.555 490.656L174.232 491.545L167.512 487.672L165.015 492H167.713L168.359 490.878L170.317 492H180.825L194.117 485.99L192.667 492H195.08L196.816 484.773L212.51 477.674H212.478L214.171 476.88L213.388 478.573V478.552L212.52 480.456L212.139 481.282L207.292 492H209.864L213.494 483.969L217.346 491.577L215.6 492H232.712L234.924 488.858L235.21 492H237.559L237.009 485.905L246.914 471.865L256.819 485.895L256.258 492H258.608L258.894 488.847L261.116 492H278.228L276.482 491.577L280.334 483.959L283.964 491.989H286.535L280.45 478.531V478.562L279.646 476.859L281.35 477.642H281.329L283.731 478.742L284.059 478.89L297.023 484.752L298.769 491.989H301.182L299.732 485.98L313.024 491.989H323.511L325.469 490.868L326.115 491.989H328.813L326.316 487.662L319.596 491.534L316.283 490.646L320.908 481.493L316.59 473.96L326.834 476.108L330.824 472.119V477.758L340.581 484.139L338.158 486.562H330.39V491.979H332.729V488.9H339.121L342.423 485.599L345.735 488.9H352.127V491.979H354.466V486.562H346.709L344.275 484.139L354.032 477.769V472.129L358.021 476.118L368.287 473.96L363.969 481.504L368.583 490.646L365.26 491.534L358.54 487.662L356.042 491.989H358.752L359.397 490.868L361.355 491.989H371.853L385.145 485.98L383.695 491.989H386.108L387.843 484.763L400.807 478.901L401.167 478.732L403.537 477.653H403.516L405.21 476.859L404.426 478.562V478.531L403.199 481.208L403.178 481.261L398.331 491.979H400.902L404.532 483.948L408.384 491.566L406.649 491.989H423.761L425.973 488.847L426.258 491.989H428.608L428.058 485.895L437.963 471.865L439 473.336V466.331L437.963 467.802L433.359 461.284L426.131 464.628L425.401 456.692L417.464 455.962L420.808 448.725L414.289 444.133L420.808 439.541L417.454 432.303L425.401 431.584L426.131 423.648L433.37 426.992L437.963 420.485L439 421.955V414.951L437.963 416.422L428.058 402.392L428.64 395.937L437.952 389.854L438.989 390.531V386.372L437.942 387.06L428.682 381.008V374.3L437.942 365.042L438.989 366.089V360.672L437.942 361.719L434.111 357.889H428.682V352.461L424.851 348.631L428.682 344.79V339.373H434.111L437.942 335.543L438.989 336.59V331.173L437.942 332.22L428.682 322.962V316.243L437.942 310.202L438.989 310.889V306.721L437.942 307.408L428.629 301.324L428.047 294.881L437.942 280.84L438.989 282.321V275.285L437.942 276.766L433.349 270.249L426.11 273.592L425.38 265.646L417.443 264.916L420.787 257.679L414.279 253.087L420.787 248.495L417.443 241.268L425.38 240.538L426.11 232.592L433.349 235.935L437.942 229.428L438.989 230.91V223.873L437.942 225.355L428.047 211.314L428.629 204.87L437.942 198.786L438.989 199.474V195.305L437.942 195.993L428.682 189.951V183.233L437.942 173.975L438.989 175.022V169.615L437.942 170.663L434.111 166.833H428.682V161.405L424.851 157.574L428.682 153.744V148.316H434.111L437.942 144.486L438.989 145.533V140.127L437.942 141.174L428.682 131.916V125.197L437.942 119.156L438.989 119.843V115.675L437.942 116.362L428.629 110.278L428.047 103.835L437.952 89.8047L439 91.2966V84.2498L437.952 85.7417L433.359 79.224L426.121 82.5675L425.391 74.6319L417.454 73.9018L420.798 66.6752L414.279 62.0725L420.798 57.4805L417.454 50.2539L425.391 49.5238L426.121 41.5776L433.359 44.9212L437.952 38.414L439 39.9059V32.8591L437.952 34.351L428.058 20.3209L428.64 13.8773L437.952 7.79333L439 8.48107V5.68777L437.952 5L426.407 12.5441L425.962 17.3795L423.168 13.4117L409.4 12.6499L403.178 24.9553L405.21 29.3569L400.807 27.3254L388.499 33.5469L389.261 47.3124L393.23 50.1057L388.394 50.5501L380.859 62.0831L388.394 73.6267L393.23 74.0605L389.261 76.8539L388.648 88.0695L379.811 83.6044L370.001 89.2227L370.572 90.2173L369.578 89.646L363.958 99.4543L368.583 108.607L365.271 109.495L358.551 105.623L354.476 112.67V104.533H346.719L342.433 100.258L338.158 104.533H330.39V112.67L326.326 105.633L319.606 109.506L313.754 107.951L312.188 113.791L305.468 117.674L309.532 124.721L302.484 120.658L298.6 127.377L292.758 128.943L294.324 134.783L290.44 141.502L297.489 145.576H289.35V153.331L285.064 157.617L289.35 161.891V169.658H297.478L290.44 173.721L294.324 180.439L293.435 183.762L284.281 179.138L274.471 184.756L275.043 185.751L274.048 185.18L268.429 194.988L272.894 203.823L261.677 204.437L258.883 208.394L258.449 203.569L246.903 196.025L235.358 203.569L234.924 208.404L232.13 204.437L218.362 203.675L212.139 215.98L214.171 220.382L209.769 218.35L197.461 224.572L198.223 238.337L202.192 241.131L197.355 241.575L189.82 253.108L197.355 264.652L202.192 265.085L202.16 265.032ZM423.221 47.323L416.395 47.9473L409.993 34.0971L423.846 40.4984L423.221 47.3336V47.323ZM436.502 36.3402L432.555 41.9374L426.333 39.0594L427.708 23.8761L436.502 36.3402ZM405.77 24.9447L410.797 15.02L421.898 15.6337L425.634 20.924L424.078 38.0225L408.48 30.817L405.77 24.9447ZM391.526 45.9898L390.912 34.88L400.839 29.8542L406.712 32.5735L413.919 48.1695L396.817 49.7248L391.526 45.9898ZM414.967 50.4337L417.845 56.6447L412.236 60.5912L399.77 51.8092L414.967 50.4337ZM389.727 71.3413L383.642 62.0302L389.727 52.7192L396.172 52.1372L410.205 62.0302L396.172 71.9338L389.727 71.3519V71.3413ZM399.77 72.2513L412.236 63.4586L417.845 67.4158L414.967 73.6267L399.77 72.2513ZM200.477 269.085L205.769 265.35L222.881 266.905L215.674 282.501L209.801 285.221L199.874 280.205L200.488 269.095L200.477 269.085ZM235.284 230.074L236.659 214.89L245.454 227.354L241.506 232.952L235.284 230.074ZM232.797 231.513L232.172 238.348L225.346 238.972L218.944 225.122L232.797 231.523V231.513ZM257.116 214.88L258.491 230.074L252.269 232.952L248.321 227.354L257.116 214.88ZM274.831 225.111L268.429 238.972L261.603 238.348L260.978 231.513L274.831 225.111ZM278.112 223.588L283.974 220.879L293.901 225.905L293.287 237.015L287.996 240.75L270.894 239.194L278.101 223.598L278.112 223.588ZM281.636 215.97L281.667 215.906L287.53 202.945L300.007 199.94L297.002 212.414L284.049 218.276L283.043 218.731L281.308 219.514H281.329L279.646 220.308L280.429 218.615V218.646L281.657 215.97H281.636ZM330.369 169.584V175.689L315.913 184.037L324.263 169.584H330.369ZM403.167 215.917L403.178 215.948L404.405 218.657V218.625L405.199 220.318L403.516 219.535H403.537L401.791 218.731L400.807 218.276L387.843 212.414L384.838 199.94L397.315 202.945L403.178 215.906L403.167 215.917ZM400.193 203.654L408.374 205.622L404.522 213.229L400.193 203.654ZM358.826 253.066L368.086 243.807H374.806L380.859 253.066L374.806 262.324H368.096L358.836 253.066H358.826ZM364.773 262.313H354.021V257.859L357.164 254.716L364.773 262.313ZM357.164 251.404L354.021 248.262V243.807H364.773L357.175 251.415L357.164 251.404ZM351.682 243.807V249.235L355.513 253.066L351.682 256.896V262.324H346.253L342.423 266.154L338.581 262.324H333.163V256.896L329.332 253.066L333.163 249.235V243.807H338.581L342.423 239.977L346.253 243.807H351.682ZM403.548 289.368L403.167 290.193L397.315 303.155L384.838 306.16L387.843 293.685L403.548 286.585H403.516L405.21 285.792L404.426 287.485V287.464L403.559 289.368H403.548ZM404.532 292.881L408.384 300.489L400.204 302.457L404.532 292.881ZM397.929 346.716L395.495 344.282V336.527H387.357L394.405 332.453L390.521 325.734L391.41 322.422L400.564 327.046L408.099 322.729L405.95 332.982L409.94 336.971H404.289L397.929 346.716ZM403.167 406.941L403.252 407.142L404.395 409.671V409.639L405.188 411.343L403.495 410.56H403.527L400.945 409.375L400.797 409.311L387.822 403.45L384.817 390.975L397.294 393.98L403.156 406.952L403.167 406.941ZM400.193 394.668L408.374 396.636L404.522 404.243L400.193 394.668ZM358.815 444.069L368.075 434.811H374.795L380.838 444.069L374.795 453.327H368.075L358.815 444.069ZM364.763 453.327H354.011V448.873L357.154 445.73L364.763 453.327ZM357.164 442.419L354.021 439.266V434.811H364.773L357.175 442.408L357.164 442.419ZM351.672 440.239L355.503 444.08L351.672 447.91V453.338H346.243L342.412 457.168L338.581 453.338H333.152V447.91L329.321 444.08L333.152 440.239V434.822H338.581L342.412 430.991L346.243 434.822H351.672V440.239ZM347.216 455.666H351.672V466.416L344.073 458.819L347.216 455.676V455.666ZM333.152 466.416V455.666H337.607L340.75 458.808L333.152 466.405V466.416ZM191.196 446.217L197.334 455.613L202.17 456.047L198.202 458.84L197.588 470.066L188.752 465.601L181.206 469.918L183.354 459.665L179.365 455.676H185.005L191.196 446.217ZM79.8559 457.93L96.9681 456.375L102.249 460.099L102.863 471.209L100.958 472.172L92.9255 476.235L87.0522 473.526L79.8453 457.93H79.8559ZM83.7821 472.002L69.9188 465.601L70.5432 458.776L77.3796 458.152L83.7821 472.002ZM104.524 458.84L100.566 456.047L105.392 455.613L111.54 446.207L117.721 455.676H123.372L119.382 459.665L121.53 469.907L113.985 465.58L105.148 470.045L104.535 458.829L104.524 458.84ZM66.0561 405.904L67.4319 421.098L61.2093 423.966L57.2514 418.358L66.0456 405.894L66.0561 405.904ZM50.4467 423.976L44.2241 421.098L45.5998 405.904L54.3834 418.369L50.4361 423.976H50.4467ZM83.7715 416.136L77.369 429.986L70.5432 429.362L69.9188 422.537L83.7715 416.136ZM87.0522 414.612L92.9255 411.904L102.852 416.93L102.238 428.029L96.9469 431.764L79.8453 430.208L87.0522 414.612ZM90.5868 406.984L90.6185 406.931L96.4813 393.969L108.958 390.964L105.953 403.439L92.989 409.301L92.6292 409.46L90.2587 410.539H90.2799L88.576 411.332L89.3592 409.639V409.671L90.5868 406.994V406.984ZM175.449 348.557L192.244 338.854H202.096V345.245L205.398 348.557L202.096 351.858V358.249H192.254L175.449 348.546V348.557ZM170.867 358.259L167.809 352.969L173.1 349.922L187.566 358.27H170.867V358.259ZM161.067 312.371V329.057L155.776 332.114L152.728 326.824L161.078 312.371H161.067ZM146.961 332.114L141.669 329.057V312.36L150.019 326.824L146.971 332.114H146.961ZM177.862 322.063L169.512 336.516H163.396V330.4L177.851 322.052L177.862 322.063ZM181.915 319.724L190.445 314.804L193.641 320.338L198.16 321.555L196.953 326.073L200.149 331.606L191.62 336.537H172.221L181.915 319.735V319.724ZM209.737 287.823L209.801 287.792L212.478 286.585H212.446L214.139 285.781L213.356 287.485V287.464L212.266 289.834L212.108 290.193L206.245 303.155L193.768 306.16L196.773 293.685L209.737 287.823ZM197.472 290.797L199.44 282.618L207.049 286.469L197.472 290.807V290.797ZM368.265 282.893L363.948 290.426L368.562 299.568L365.239 300.457L358.519 296.584L354.455 303.62V295.484H346.687L344.264 293.061L354.011 286.691V281.052L358 285.041L368.265 282.882V282.893ZM318.326 348.557L301.521 358.259H291.668V351.869L288.356 348.567L291.668 345.256V338.865H301.521L318.315 348.567L318.326 348.557ZM306.209 338.865H322.898L325.956 344.155L320.665 347.203L306.209 338.854V338.865ZM354.011 416.073V410.422L344.253 404.053L346.687 401.619H354.455V393.493L358.519 400.529L365.239 396.646L368.562 397.535L363.937 406.687L368.255 414.221L358 412.073L354.011 416.062V416.073ZM326.009 444.069L316.749 453.327H310.029L303.986 444.069L310.029 434.811H316.749L326.009 444.069ZM320.061 434.811H330.813V439.266L327.67 442.408L320.072 434.811H320.061ZM327.67 445.73L330.813 448.873V453.327H320.061L327.67 445.72V445.73ZM274.63 444.069L288.663 434.176L295.107 434.758L301.192 444.059L295.107 453.37L288.663 453.952L274.63 444.048V444.069ZM285.064 454.29L269.868 455.666L266.989 449.455L272.598 445.498L285.064 454.29ZM272.598 442.63L266.989 438.684L269.868 432.473L285.064 433.848L272.598 442.63ZM302.589 441.921L296.451 432.526L291.615 432.092L295.584 429.298L296.197 418.083L305.034 422.548L312.569 418.231L310.421 428.484L314.41 432.473H308.759L302.589 441.932V441.921ZM205.123 453.962L198.668 453.38L192.583 444.069L198.668 434.769L205.123 434.187L219.156 444.08L205.123 453.983V453.962ZM221.198 445.498L226.796 449.444L223.918 455.666L208.732 454.29L221.198 445.498ZM167.766 444.08L177.026 434.822H183.746L189.799 444.08L183.746 453.338H177.026L167.766 444.08ZM173.714 453.338H162.962V448.883L166.105 445.741L173.703 453.349L173.714 453.338ZM166.115 442.419L162.972 439.276V434.822H173.724L166.126 442.419H166.115ZM208.732 433.848L223.918 432.473L225.336 435.531L226.796 438.684L222.299 441.858L221.198 442.641L208.732 433.859V433.848ZM197.334 432.526L191.196 441.932L185.016 432.483H179.375L183.365 428.494L181.206 418.231L188.741 422.548L197.578 418.072L198.191 429.288L202.16 432.081L197.324 432.515L197.334 432.526ZM230.49 348.557L221.23 357.815H214.51L208.562 348.716L208.721 348.557L208.562 348.398L214.51 339.299H221.23L230.49 348.557ZM224.542 339.299H235.294V343.753L232.151 346.896L224.553 339.299H224.542ZM232.141 350.218L235.284 353.36V357.815H224.532L232.13 350.207L232.141 350.218ZM237.633 352.387L233.802 348.557L237.633 344.727V339.299H243.062L246.893 335.468L250.734 339.299H256.153V344.727L259.984 348.557L256.153 352.387V357.815H250.734L246.893 361.645L243.062 357.815H237.633V352.387ZM220.891 302.351L232.109 301.726L234.913 297.759L235.347 302.594L244.755 308.741L235.294 314.921V320.56L231.315 316.571L221.05 318.73L225.368 311.186L220.891 302.351ZM209.134 302.457L213.462 292.881L217.314 300.489L209.134 302.457ZM261.666 301.726L272.884 302.34L268.418 311.175L272.736 318.719L262.481 316.571L258.491 320.56V314.91L249.03 308.731L258.438 302.583L258.872 297.759L261.666 301.716V301.726ZM276.45 300.489L280.302 292.881L284.641 302.457L276.461 300.489H276.45ZM330.813 281.062V286.712L340.549 293.071L338.126 295.494H330.369V303.642L326.295 296.595L319.575 300.467L316.252 299.579L320.876 290.426L316.569 282.903L326.824 285.051L330.813 281.062ZM369.44 301.769L370.647 306.287L376.181 309.482L371.25 318.01L354.455 327.702V308.308L359.376 299.78L364.911 302.964L369.44 301.758V301.769ZM381.663 309.334L380.912 312.434L375.313 315.661L378.541 310.075L381.663 309.323V309.334ZM342.412 324.475L332.718 307.683V297.833H339.11L342.423 294.532L345.724 297.833H352.116V307.683L342.412 324.486V324.475ZM311.849 319.724L321.554 336.527H302.155L293.626 331.596L296.822 326.062L295.615 321.544L300.134 320.327L303.33 314.794L311.86 319.714L311.849 319.724ZM303.923 312.434L303.171 309.323L306.283 310.075L309.51 315.672L303.912 312.445L303.923 312.434ZM313.564 318.01L308.643 309.482L314.177 306.287L315.384 301.769L319.903 302.975L325.437 299.78L330.369 308.308V327.702L313.564 318V318.01ZM313.172 300.986L312.167 304.731L306.865 307.789L302.558 306.752L299.7 294.881L313.183 300.975L313.172 300.986ZM300.61 308.71L301.648 313.016L298.589 318.317L294.832 319.322L288.737 305.853L300.61 308.71ZM292.642 320.179L284.334 324.369L276.09 319.65L276.037 319.417L275.794 319.365L271.064 311.112L275.36 302.636L285.848 305.165L292.642 320.179ZM256.142 326.221V336.971H251.687L248.533 333.828L256.131 326.231L256.142 326.221ZM246.882 332.157L237.622 322.899V316.18L246.882 310.138L256.142 316.18V322.899L246.882 332.157ZM258.491 323.872L263.243 319.121L274.069 321.396L276.334 332.21L271.582 336.96H258.491V323.872ZM222.701 311.112L217.97 319.365L217.738 319.417L217.685 319.65L209.43 324.38L201.123 320.19L207.917 305.165L218.415 302.636L222.701 311.112ZM230.543 319.121L235.284 323.861V336.95H222.193L217.441 332.199L219.706 321.385L230.532 319.111L230.543 319.121ZM237.633 326.21L245.231 333.818L242.088 336.96H237.633V326.21ZM263.285 348.557L272.545 339.299H279.265L285.213 348.398L285.054 348.557L285.213 348.716L279.265 357.815H272.545L263.285 348.557ZM269.233 357.815H258.481V353.36L261.624 350.218L269.222 357.815H269.233ZM261.634 346.906L258.491 343.764V339.309H269.243L261.645 346.917L261.634 346.906ZM342.412 402.593L339.1 399.281H332.708V389.43L342.401 372.639L352.106 389.441V399.281H345.714L342.412 402.593ZM162.972 416.073V410.433L153.215 404.063L155.649 401.63H163.406V393.493L167.48 400.54L174.2 396.657L177.523 397.546L172.899 406.698L177.216 414.232L166.951 412.084L162.962 416.073H162.972ZM151.511 405.756L160.623 411.703V418.422L151.363 427.68L142.103 418.422V411.703L151.204 405.756L151.352 405.904L151.511 405.746V405.756ZM192.127 384.098L195.186 378.797L198.932 377.791L205.028 391.271L193.154 388.414L192.117 384.108L192.127 384.098ZM190.604 387.801L187.492 387.05L184.265 381.452L189.863 384.68L190.614 387.79L190.604 387.801ZM191.217 390.351L194.075 402.222L180.603 396.128L181.608 392.382L186.91 389.324L191.217 390.361V390.351ZM175.555 406.624L179.746 398.318L194.763 405.111L197.292 415.596L188.815 419.882L180.561 415.152L180.508 414.919L180.275 414.877L175.544 406.624H175.555ZM197.472 406.328L207.049 410.655L199.44 414.507L197.472 406.328ZM212.467 410.549H212.489L210.679 409.724L209.748 409.301L196.784 403.439L193.778 390.964L206.255 393.969L212.118 406.931L212.129 406.963L213.356 409.671V409.639L214.15 411.332L212.467 410.549ZM235.284 376.564V382.204L244.744 388.383L235.347 394.53L234.913 399.355L232.119 395.398L220.902 394.784L225.368 385.949L221.05 378.416L231.305 380.564L235.294 376.575L235.284 376.564ZM246.882 364.957L256.142 374.215V380.934L246.882 386.976L237.622 380.934V374.215L246.882 364.957ZM237.633 370.914V360.164H242.088L245.231 363.306L237.633 370.914ZM272.736 378.405L268.418 385.939L272.884 394.774L261.666 395.387L258.862 399.355L258.417 394.52L249.02 388.372L258.47 382.193V376.543L262.46 380.532L272.725 378.384L272.736 378.405ZM284.641 394.668L280.313 404.243L276.461 396.636L284.641 394.668ZM217.325 396.636L213.473 404.243L209.144 394.668L217.325 396.636ZM214.721 406.984L219.748 397.059L230.86 397.673L234.585 402.952L233.029 420.062L217.431 412.856L214.721 406.984ZM236.987 402.307L237.569 395.863L246.882 389.779L256.206 395.863L256.788 402.307L246.882 416.337L236.977 402.296L236.987 402.307ZM262.936 397.662L274.048 397.048L279.075 406.973L276.366 412.845L260.767 420.051L259.211 402.952L262.947 397.662H262.936ZM280.419 409.639V409.671L287.53 393.98L300.007 390.975L297.002 403.45L284.038 409.311L283.488 409.565L281.297 410.56H281.318L279.625 411.354L280.408 409.661L280.419 409.639ZM302.558 390.351L306.854 389.314L312.156 392.382L313.161 396.128L299.69 402.222L302.547 390.351H302.558ZM287.181 410.888L286.715 410.655L296.303 406.328L294.335 414.507L287.181 410.888ZM299.012 405.1L314.029 398.308L318.231 406.613L313.511 414.856L313.267 414.909L313.214 415.152L304.97 419.871L296.494 415.586L299.023 405.09L299.012 405.1ZM326.062 414.634L330.813 419.384V432.473H317.723L312.971 427.722L315.246 416.898L326.062 414.634ZM326.824 412.084L316.569 414.232L320.887 406.698L316.262 397.546L319.575 396.657L326.295 400.54L330.369 393.493V401.63H338.126L340.56 404.063L330.813 410.433V416.083L326.824 412.094V412.084ZM325.448 397.334L319.913 394.139L315.394 395.355L314.177 390.838L308.643 387.642L313.564 379.114L330.369 369.412V388.806L325.437 397.334H325.448ZM306.283 387.05L303.182 387.801L303.933 384.68L309.521 381.452L306.293 387.05H306.283ZM300.621 388.404L288.747 391.261L294.843 377.791L298.589 378.797L301.658 384.108L300.621 388.404ZM285.869 391.959L275.381 394.488L271.095 386.013L275.815 377.77L276.048 377.717L276.101 377.474L284.355 372.755L292.663 376.945L285.869 391.97V391.959ZM263.243 377.992L258.491 373.242V360.153H271.582L276.334 364.904L274.069 375.728L263.243 377.992ZM256.142 370.903L248.544 363.306L251.697 360.164H256.153V370.914L256.142 370.903ZM235.284 360.164V373.252L230.543 377.992L219.716 375.728L217.441 364.904L222.193 360.153H235.284V360.164ZM217.685 377.474L217.738 377.707L217.981 377.76L222.701 386.013L218.415 394.498L207.927 391.97L201.133 376.945L209.441 372.744L217.685 377.474ZM193.651 376.786L190.455 382.32L181.926 377.389L172.232 360.598H191.63L200.16 365.518L196.974 371.052L198.181 375.58L193.662 376.797L193.651 376.786ZM180.201 379.114L185.122 387.642L179.587 390.838L178.37 395.355L173.851 394.139L168.316 397.334L163.385 388.806V369.412L180.19 379.114H180.201ZM161.067 389.441V399.292H154.675L151.363 402.603L148.061 399.292H141.669V389.451L151.374 372.649L161.078 389.441H161.067ZM139.32 401.619H147.088L149.522 404.063L139.764 410.433V416.083L135.775 412.094L125.51 414.242L129.827 406.698L125.203 397.556L128.526 396.668L135.246 400.551L139.309 393.514V401.64L139.32 401.619ZM108.651 402.222L111.509 390.351L115.816 389.314L121.118 392.372L122.123 396.128L108.651 402.222ZM122.98 398.318L127.171 406.624L122.441 414.877L122.208 414.919L122.165 415.152L113.911 419.882L105.434 415.596L107.964 405.1L122.991 398.308L122.98 398.318ZM135.013 414.644L139.764 419.395V432.483H126.674L121.922 427.733L124.187 416.908L135.013 414.644ZM142.114 421.733L149.712 429.33L146.558 432.473H142.103V421.723L142.114 421.733ZM160.633 421.733V432.483H156.178L153.035 429.341L160.644 421.733H160.633ZM162.972 419.384L167.713 414.644L178.539 416.908L180.804 427.733L176.052 432.483H162.962V419.395L162.972 419.384ZM200.477 428.029L199.863 416.919L209.79 411.893L215.663 414.602L222.87 430.198L205.769 431.753L200.477 428.018V428.029ZM218.944 416.125L232.797 422.527L232.172 429.362L225.346 429.986L218.944 416.125ZM235.284 421.098L236.659 405.904L245.454 418.379L241.506 423.976L235.284 421.098ZM257.116 405.904L258.491 421.088L252.269 423.966L248.321 418.369L257.116 405.904ZM274.831 416.125L268.429 429.976L261.603 429.351L260.978 422.516L274.831 416.115V416.125ZM278.112 414.612L283.985 411.893L293.912 416.919L293.298 428.029L288.006 431.764L270.905 430.208L278.112 414.612ZM333.152 432.473V421.723L340.75 429.32L337.607 432.462H333.152V432.473ZM351.672 421.723V432.473H347.216L344.073 429.33L351.672 421.733V421.723ZM342.412 427.669L333.152 418.411V411.692L342.253 405.746L342.412 405.904L342.571 405.746L351.672 411.692V418.411L342.412 427.669ZM371.652 396.128L372.657 392.372L377.959 389.314L382.277 390.351L385.134 402.222L371.652 396.128ZM384.214 388.414L383.176 384.108L386.235 378.797L389.992 377.791L396.087 391.271L384.214 388.414ZM380.912 384.68L381.663 387.79L378.552 387.039L375.324 381.442L380.922 384.669L380.912 384.68ZM376.181 387.642L370.647 390.827L369.43 395.355L364.911 394.139L359.376 397.334L354.455 388.806V369.401L371.25 379.103L376.181 387.632V387.642ZM352.116 384.754L343.767 370.3L346.825 365.01L352.116 368.068V384.764V384.754ZM332.718 384.754V368.057L338.01 365.01L341.068 370.3L332.718 384.754ZM315.913 375.051L324.263 360.598H330.379V366.703L315.924 375.051H315.913ZM311.86 377.4L303.33 382.32L300.134 376.786L295.615 375.57L296.822 371.041L293.626 365.507L302.155 360.587H321.564L311.87 377.379L311.86 377.4ZM290.43 364.661L294.303 371.38L293.414 374.702L284.271 370.089L276.736 374.406L278.884 364.142L274.895 360.153H280.546L286.916 350.408L289.34 352.831V360.598H297.478L290.44 364.661H290.43ZM306.209 358.259L320.665 349.911L325.956 352.958L322.898 358.249H306.198L306.209 358.259ZM289.329 344.282L286.906 346.716L280.535 336.971H274.884L278.874 332.982L276.725 322.729L284.26 327.046L293.414 322.422L294.303 325.745L290.43 332.464L297.478 336.537H289.34V344.293L289.329 344.282ZM324.252 336.516L315.902 322.063L330.358 330.411V336.527H324.242L324.252 336.516ZM332.718 329.057V312.371L341.068 326.824L338.02 332.114L332.729 329.057H332.718ZM343.767 326.824L352.116 312.36V329.057L346.825 332.114L343.767 326.824ZM368.911 322.063L360.561 336.516H354.455V330.4L368.911 322.063ZM372.975 319.724L381.504 314.804L384.7 320.338L389.219 321.555L388.002 326.073L391.198 331.606L382.668 336.527H363.27L372.975 319.735V319.724ZM386.245 318.317L383.187 313.027L384.224 308.72L396.098 305.864L390.013 319.333L386.256 318.328L386.245 318.317ZM377.97 307.81L372.657 304.742L371.652 300.996L385.134 294.902L382.277 306.773L377.97 307.81ZM351.682 285.432L342.581 291.378L342.412 291.209L342.253 291.368L333.163 285.432V278.713L342.423 269.455L351.682 278.713V285.432ZM344.073 267.805L347.216 264.662H351.672V275.412L344.073 267.805ZM333.163 275.412V264.662H337.618L340.772 267.805L333.173 275.402L333.163 275.412ZM330.813 277.751L326.062 282.501L315.236 280.226L312.971 269.413L317.723 264.662H330.813V277.751ZM313.214 281.962L313.267 282.205L313.5 282.258L318.22 290.5L314.029 298.806L299.002 292.013L296.473 281.528L304.949 277.243L313.204 281.972L313.214 281.962ZM296.303 290.786L286.726 286.458L290.398 284.596L294.335 282.607L296.303 290.786ZM281.318 286.564H281.297L283.509 287.58L284.027 287.823L296.991 293.685L299.997 306.16L287.52 303.155L281.657 290.193L281.435 289.696L280.419 287.453V287.474L279.625 285.792L281.308 286.575L281.318 286.564ZM279.064 290.141L276.281 295.643L274.037 300.065L262.926 299.452L259.2 294.161L260.756 277.052L276.355 284.258L279.064 290.13V290.141ZM256.788 294.817L256.206 301.25L246.893 307.345L237.58 301.261L236.998 294.817L246.903 280.787L256.809 294.828L256.788 294.817ZM230.839 299.452L219.738 300.065L214.711 290.141L217.431 284.268L233.019 277.063L234.575 294.161L230.839 299.452ZM205.028 305.853L198.932 319.322L195.186 318.317L192.117 313.016L193.154 308.71L205.028 305.853ZM189.852 312.434L184.254 315.661L187.482 310.075L190.593 309.323L189.842 312.434H189.852ZM203.345 332.453L199.472 325.734L200.361 322.422L209.504 327.046L217.039 322.729L214.891 332.982L218.88 336.971H213.24L206.869 346.716L204.446 344.282V336.527H196.308L203.356 332.453H203.345ZM187.556 338.865L173.1 347.213L167.809 344.166L170.867 338.875H187.556V338.865ZM204.446 352.842L206.869 350.419L213.24 360.164H218.88L214.891 364.153L217.039 374.406L209.504 370.089L200.35 374.712L199.461 371.39L203.334 364.671L196.297 360.608H204.435V352.842H204.446ZM169.523 360.598L177.862 375.051L163.406 366.703V360.598H169.523ZM161.067 368.057V384.754L152.718 370.3L155.776 365.01L161.067 368.057ZM150.008 370.3L141.659 384.764V368.068L146.95 365.01L149.998 370.3H150.008ZM124.864 375.051L133.214 360.598H139.32V366.703L124.864 375.04V375.051ZM139.32 369.412V388.817L134.399 397.345L128.864 394.149L124.335 395.355L123.128 390.827L117.594 387.632L122.525 379.103L139.32 369.401V369.412ZM115.234 387.05L112.122 387.801L112.874 384.69L118.472 381.463L115.244 387.06L115.234 387.05ZM109.561 388.414L97.6877 391.271L103.783 377.802L107.53 378.807L110.599 384.119L109.561 388.425V388.414ZM95.6664 410.655L105.244 406.328L103.275 414.507L95.6664 410.655ZM104.524 429.288L105.148 418.072L113.985 422.537L121.53 418.221L119.382 428.484L123.372 432.473H117.731L111.551 441.932L105.403 432.515L100.566 432.081L104.535 429.277L104.524 429.288ZM134.97 444.08L125.711 453.338H118.991L112.948 444.08L118.991 434.822H125.711L134.97 444.08ZM129.023 434.822H139.775V439.276L136.632 442.419L129.034 434.822H129.023ZM136.621 445.73L139.764 448.873V453.327H129.012L136.611 445.73H136.621ZM93.9944 433.838L81.528 442.63L75.9298 438.684L78.8083 432.462L94.005 433.838H93.9944ZM97.6031 434.166L104.048 434.748L110.133 444.059L104.048 453.37L97.6031 453.952L83.5599 444.059L97.5925 434.155L97.6031 434.166ZM94.005 454.29L78.8083 455.676L75.9298 449.455L81.5386 445.508L94.0155 454.301L94.005 454.29ZM147.532 453.338H142.114V447.91L138.283 444.08L142.114 440.25V434.822H147.532L151.374 430.991L155.205 434.822H160.633V440.25L164.464 444.08L160.633 447.91V453.338H155.205L151.374 457.168L147.543 453.338H147.532ZM146.558 455.676L149.712 458.819L142.114 466.416V455.666H146.569L146.558 455.676ZM156.168 455.676H160.623V466.426L153.025 458.819L156.168 455.676ZM200.477 460.11L205.769 456.375L222.87 457.93L215.663 473.526L209.79 476.235L199.863 471.209L200.477 460.099V460.11ZM225.346 458.152L232.172 458.776L232.797 465.601L218.944 472.002L225.346 458.142V458.152ZM234.331 456.618L226.394 455.888L229.738 448.651L223.23 444.059L229.738 439.467L226.394 432.24L234.331 431.51L235.051 423.564L242.289 426.907L246.882 420.4L251.475 426.907L258.714 423.564L259.444 431.51L267.381 432.24L264.037 439.467L270.556 444.059L264.037 448.661L267.381 455.888L259.444 456.618L258.724 464.554L251.486 461.21L246.893 467.728L242.3 461.21L235.061 464.564L234.331 456.618ZM261.603 458.776L268.429 458.152L274.831 472.002L260.978 465.601L261.603 458.776ZM270.905 457.93L288.006 456.375L293.298 460.11L293.912 471.219L283.985 476.245L278.112 473.526L270.905 457.93ZM295.584 458.84L291.615 456.047L296.451 455.613L302.589 446.217L308.77 455.676H314.41L310.421 459.665L312.569 469.918L305.034 465.601L296.197 470.066L295.584 458.84ZM354.011 432.473V419.384L358.762 414.634L369.588 416.898L371.853 427.722L367.101 432.473H354.011ZM371.62 415.163L371.567 414.919L371.324 414.866L366.604 406.624L370.805 398.308L385.822 405.1L388.351 415.596L379.875 419.882L371.631 415.163H371.62ZM388.531 406.328L398.119 410.666L390.51 414.517L388.542 406.338L388.531 406.328ZM398.966 391.97L392.172 376.945L400.479 372.755L408.734 377.485L408.786 377.717L409.019 377.77L413.75 386.023L409.453 394.498L398.966 391.98V391.97ZM384.7 376.786L381.504 382.32L372.975 377.389L363.27 360.598H382.679L391.209 365.518L388.013 371.052L389.219 375.58L384.7 376.786ZM368.911 375.051L354.455 366.703V360.598H360.561L368.911 375.051ZM352.116 365.359L345.968 361.815L342.423 367.962L338.867 361.815L332.718 365.359V358.259H325.617L329.173 352.112L323.025 348.567L329.173 345.023L325.628 338.875H332.729V331.776L338.877 335.32L342.423 329.173L345.968 335.32L352.127 331.765V338.865H359.228L355.683 345.012L361.831 348.567L355.683 352.112L359.228 358.27H352.127V365.359H352.116ZM361.916 338.865H378.615L364.159 347.213L358.868 344.155L361.926 338.865H361.916ZM358.857 352.969L364.149 349.911L378.615 358.259H361.916L358.857 352.969ZM383.303 358.259L366.498 348.557L383.293 338.854H393.145V345.245L396.458 348.557L393.145 351.858V358.249H383.303V358.259ZM400.49 324.38L392.182 320.19L398.976 305.165L409.474 302.647L413.76 311.122L409.04 319.365L408.797 319.417L408.744 319.661L400.5 324.38H400.49ZM398.109 286.469L388.531 290.807L390.5 282.628L398.119 286.48L398.109 286.469ZM385.822 292.024L370.805 298.817L366.604 290.511L371.334 282.268L371.567 282.216L371.62 281.983L379.875 277.253L388.351 281.538L385.822 292.035V292.024ZM358.762 282.501L354.021 277.761V264.673H367.112L371.864 269.423L369.588 280.237L358.762 282.512V282.501ZM326.019 253.066L316.76 262.324H310.04L303.997 253.066L310.04 243.807H316.76L326.019 253.066ZM320.072 243.807H330.824V248.262L327.681 251.404L320.083 243.797L320.072 243.807ZM327.67 254.716L330.813 257.859V262.313H320.061L327.66 254.716H327.67ZM354.021 225.058V219.419L344.264 213.049L346.698 210.616H354.455V202.479L358.529 209.526L365.249 205.643L368.572 206.531L363.948 215.684L368.265 223.217L358 221.069L354.011 225.058H354.021ZM342.423 236.665L333.163 227.407V220.689L342.264 214.742L342.412 214.89L342.571 214.732L351.682 220.678V227.397L342.423 236.655V236.665ZM351.682 230.708V241.459H347.227L344.084 238.316L351.693 230.708H351.682ZM371.652 205.114L372.657 201.358L377.959 198.3L382.266 199.337L385.124 211.208L371.641 205.114H371.652ZM384.214 197.4L383.176 193.094L386.235 187.793L389.992 186.788L396.087 200.268L384.214 197.411V197.4ZM380.912 193.665L381.663 196.776L378.552 196.025L375.324 190.428L380.922 193.655L380.912 193.665ZM376.181 196.628L370.647 199.823L369.44 204.341L364.921 203.135L359.387 206.33L354.455 197.802V178.408L371.26 188.11L376.181 196.638V196.628ZM352.116 198.416V208.267H345.724L342.412 211.579L339.11 208.267H332.718V198.427L342.423 181.624L352.127 198.416H352.116ZM330.369 210.605H338.137L340.571 213.049L330.813 219.419V225.069L326.824 221.08L316.558 223.228L320.876 215.684L316.252 206.531L319.575 205.643L326.295 209.526L330.358 202.49V210.616L330.369 210.605ZM299.7 211.208L302.558 199.337L306.865 198.3L312.167 201.358L313.172 205.114L299.7 211.208ZM314.029 207.293L318.22 215.599L313.49 223.852L313.257 223.894L313.204 224.127L304.949 228.857L296.473 224.572L299.002 214.086L314.029 207.293ZM326.062 223.63L330.813 228.381V241.469H317.723L312.971 236.718L315.236 225.894L326.062 223.63ZM333.163 230.719L340.761 238.316L337.607 241.459H333.152V230.708L333.163 230.719ZM354.021 228.37L358.762 223.619L369.588 225.884L371.864 236.708L367.112 241.459H354.021V228.37ZM371.62 224.148L371.567 223.916L371.334 223.863L366.604 215.61L370.805 207.304L385.822 214.097L388.351 224.593L379.875 228.878L371.62 224.148ZM388.531 215.314L398.109 219.641L390.5 223.492L388.531 215.314ZM398.966 200.945L392.172 185.92L400.479 181.73L408.734 186.449L408.786 186.682L409.019 186.735L413.75 194.988L409.464 203.463L398.966 200.934V200.945ZM384.7 185.772L381.504 191.306L372.975 186.375L363.281 169.584H382.679L391.209 174.504L388.023 180.037L389.23 184.566L384.711 185.772H384.7ZM368.911 184.037L354.455 175.689V169.584H360.572L368.922 184.037H368.911ZM352.116 177.043V193.739L343.767 179.286L346.825 173.996L352.116 177.043ZM341.057 179.286L332.708 193.739V177.043L337.999 173.996L341.057 179.286ZM330.369 178.397V197.802L325.448 206.33L319.913 203.135L315.384 204.352L314.167 199.823L308.632 196.628L313.564 188.1L330.358 178.397H330.369ZM306.283 196.035L303.171 196.787L303.923 193.676L309.521 190.449L306.293 196.046L306.283 196.035ZM300.61 197.4L288.737 200.257L294.832 186.788L298.579 187.793L301.648 193.105L300.61 197.411V197.4ZM286.715 219.641L296.293 215.314L294.324 223.492L286.715 219.641ZM295.573 238.274L296.197 227.058L305.034 231.523L312.579 227.206L310.431 237.47L314.421 241.459H308.77L302.589 250.918L296.441 241.511L291.605 241.067L295.573 238.274ZM285.054 242.823L272.588 251.605L266.989 247.659L269.868 241.448L285.054 242.823ZM288.652 243.151L295.107 243.733L301.192 253.034L295.107 262.345L288.652 262.927L274.619 253.023L288.652 243.13V243.151ZM285.054 263.276L269.857 264.652L266.979 258.43L272.577 254.483L285.043 263.276H285.054ZM296.441 264.588L302.579 255.192L308.759 264.662H314.41L310.421 268.651L312.569 278.893L305.023 274.576L296.187 279.041L295.573 267.826L291.605 265.032L296.441 264.599V264.588ZM293.298 269.085L293.912 280.195L283.985 285.221L278.112 282.512L270.905 266.916L288.006 265.36L293.298 269.095V269.085ZM274.831 280.988L260.978 274.587L261.603 267.752L268.429 267.127L274.831 280.988ZM258.491 276.015L257.116 291.209L248.321 278.735L252.269 273.127L258.491 276.005V276.015ZM236.659 291.209L235.284 276.015L241.506 273.137L245.454 278.745L236.659 291.209ZM218.944 280.988L225.346 267.138L232.172 267.762L232.797 274.587L218.944 280.988ZM175.555 290.5L180.381 282.067L188.815 277.243L197.292 281.538L194.773 292.024L179.746 298.817L175.555 290.511V290.5ZM194.075 294.902L191.217 306.773L186.91 307.81L181.608 304.742L180.603 300.996L194.075 294.902ZM168.338 299.78L173.872 302.975L178.391 301.769L179.608 306.287L185.143 309.482L180.222 318.01L163.417 327.713V308.318L168.348 299.79L168.338 299.78ZM141.659 297.833H148.051L151.352 294.532L154.665 297.833H161.057V307.683L151.352 324.475L141.648 307.673V297.822L141.659 297.833ZM117.594 309.482L123.128 306.287L124.335 301.769L128.864 302.975L134.399 299.78L139.32 308.308V327.702L122.525 318.01L117.604 309.482H117.594ZM111.107 336.516L102.577 331.585L105.773 326.052L104.566 321.534L109.085 320.317L112.281 314.783L120.811 319.703L130.515 336.495H111.117L111.107 336.516ZM133.214 336.516L124.864 322.063L139.32 330.4V336.516H133.214ZM100.63 358.259V351.869L97.3173 348.567L100.63 345.256V338.865H110.482L127.277 348.567L110.472 358.27H100.63V358.259ZM115.16 338.865H131.859L134.907 344.155L129.616 347.213L115.16 338.865ZM129.616 349.911L134.907 352.969L131.859 358.259H115.149L129.616 349.911ZM141.659 358.259H134.558L138.103 352.112L131.954 348.567L138.103 345.012L134.558 338.865H141.659V331.765L147.807 335.32L151.352 329.173L154.898 335.31L161.046 331.765V338.865H168.147L164.602 345.012L170.74 348.557L164.591 352.101L168.147 358.249H161.046V365.338L154.898 361.793L151.342 367.941L147.797 361.793L141.648 365.338V358.238L141.659 358.259ZM105.773 371.052L102.577 365.518L111.096 360.598H130.505L120.8 377.389L112.271 382.32L109.075 376.776L104.556 375.57L105.762 371.052H105.773ZM80.0252 386.013L84.8509 377.58L93.2853 372.755L101.603 376.945L94.8092 391.959L84.3112 394.488L80.0252 386.013ZM93.5816 394.668L89.2533 404.243L85.4012 396.625L93.5816 394.657V394.668ZM71.8766 397.662L82.9884 397.048L88.0152 406.973L85.2954 412.845L69.6966 420.051L68.1409 402.952L71.8766 397.662ZM46.5205 395.863L55.8333 389.779L65.146 395.863L65.728 402.307L55.8227 416.337L45.9279 402.307L46.5099 395.863H46.5205ZM26.3711 412.845L23.6619 406.973L28.6887 397.048L39.8005 397.662L43.5362 402.952L41.9805 420.051L26.3817 412.845H26.3711ZM27.8844 416.125L41.7372 422.527L41.1128 429.351L34.2764 429.976L27.8739 416.125H27.8844ZM17.6616 433.848L32.8583 432.473L35.7368 438.694L30.1386 442.641L17.6721 433.848H17.6616ZM17.6616 454.29L30.1386 445.498L35.7368 449.444L32.8583 455.666L17.6616 454.29ZM43.2822 456.629L35.3346 455.909L38.6787 448.672L32.1704 444.08L38.6787 439.488L35.3346 432.251L43.2822 431.52L44.0018 423.585L51.2298 426.928L55.8227 420.411L60.4262 426.928L67.6541 423.585L68.3843 431.52L76.3213 432.251L72.9772 439.488L79.4961 444.08L72.9772 448.672L76.3213 455.909L68.3737 456.629L67.6435 464.564L60.405 461.221L55.8121 467.728L51.2192 461.221L43.9913 464.564L43.2611 456.629H43.2822ZM34.2869 458.152L41.1234 458.776L41.7477 465.601L27.8844 472.002L34.2869 458.152ZM39.79 490.466L28.6782 491.08L23.6514 481.155L26.3605 475.293L41.9594 468.088L43.515 485.186L39.7794 490.476L39.79 490.466ZM45.6104 482.223L44.2346 467.04L50.4573 464.162L54.4046 469.759L45.621 482.223H45.6104ZM57.2619 469.759L61.2093 464.162L67.4319 467.04L66.0561 482.234L57.2619 469.77V469.759ZM88.0046 481.155L82.9778 491.08L71.866 490.466L68.1303 485.175L69.686 468.077L85.2848 475.282L87.994 481.144L88.0046 481.155ZM95.6664 477.473L103.275 473.621L105.244 481.8L95.6664 477.462V477.473ZM127.171 481.504L122.97 489.82L107.953 483.028L105.424 472.531L113.9 468.246L122.155 472.976L122.208 473.219L122.441 473.272L127.16 481.514L127.171 481.504ZM135.013 473.515L124.187 471.251L121.922 460.438L126.674 455.687H139.764V468.775L135.013 473.526V473.515ZM160.633 476.457L151.532 482.403L151.374 482.245L151.215 482.403L142.114 476.467V469.749L151.374 460.491L160.633 469.749V476.467V476.457ZM162.972 468.765V455.676H176.063L180.815 460.427L178.55 471.241L167.724 473.515L162.983 468.765H162.972ZM179.756 489.831L175.566 481.525L180.285 473.283L180.518 473.23L180.571 472.997L188.826 468.267L197.302 472.553L194.773 483.049L179.756 489.842V489.831ZM207.06 477.483L197.482 481.821L199.451 473.642L207.06 477.494V477.483ZM230.849 490.476L219.738 491.09L214.711 481.165L217.42 475.293L233.019 468.088L234.575 485.197L230.849 490.476ZM236.659 482.234L235.284 467.04L241.506 464.162L245.454 469.77L236.659 482.245V482.234ZM248.321 469.77L252.269 464.162L258.491 467.04L257.116 482.234L248.321 469.77ZM279.064 481.155L274.037 491.08L262.936 490.466L259.2 485.175L260.756 468.066L276.355 475.272L279.064 481.144V481.155ZM286.726 477.483L294.335 473.632L296.303 481.811L286.726 477.483ZM318.231 481.514L314.029 489.82L299.002 483.028L296.473 472.542L304.949 468.246L313.193 472.965L313.246 473.198L313.49 473.251L318.22 481.504L318.231 481.514ZM326.062 473.505L315.246 471.23L312.971 460.406L317.712 455.666H330.803V468.754L326.051 473.505H326.062ZM351.672 476.446L342.571 482.393L342.412 482.234L342.253 482.393L333.152 476.446V469.738L342.412 460.48L351.672 469.738V476.457V476.446ZM354.011 468.754V455.666H367.101L371.853 460.406L369.588 471.23L358.762 473.494L354.011 468.744V468.754ZM370.805 489.831L366.615 481.525L371.345 473.272L371.578 473.23L371.631 472.997L379.885 468.267L388.362 472.553L385.833 483.038L370.805 489.831ZM398.109 477.483L388.531 481.811L390.5 473.632L398.109 477.483ZM421.909 490.487L410.797 491.101L405.77 481.176L408.49 475.304L424.089 468.098L425.645 485.207L421.909 490.498V490.487ZM432.566 464.173L436.524 469.78L427.729 482.245L426.354 467.051L432.576 464.173H432.566ZM423.242 458.787L423.867 465.612L410.014 472.013L416.417 458.163L423.242 458.787ZM413.93 457.941L406.723 473.537L400.849 476.245L390.923 471.219L391.537 460.12L396.828 456.385L413.93 457.941ZM393.23 456.057L389.261 458.851L388.648 470.066L379.811 465.59L372.266 469.907L374.414 459.644L370.424 455.666H376.065L382.245 446.207L388.394 455.613L393.23 456.057ZM417.856 449.455L414.977 455.676L399.781 454.301L412.247 445.508L417.856 449.455ZM396.183 453.973L389.738 453.391L383.653 444.08L389.738 434.769L396.183 434.187L410.226 444.09L396.193 453.994L396.183 453.973ZM417.856 438.694L412.247 442.651L399.77 433.859L414.967 432.483L417.845 438.705L417.856 438.694ZM388.394 432.536L382.245 441.943L376.065 432.473H370.414L374.403 428.484L372.255 418.231L379.79 422.548L388.626 418.072L389.251 429.298L393.209 432.092L388.383 432.526L388.394 432.536ZM396.817 431.764L391.526 428.039L390.912 416.93L400.839 411.904L406.712 414.612L413.919 430.208L396.817 431.764ZM423.242 429.362L416.406 429.986L410.003 416.136L423.867 422.537L423.242 429.362ZM436.524 418.379L432.576 423.976L426.354 421.098L427.729 405.904L436.524 418.369V418.379ZM425.645 402.963L424.089 420.062L408.49 412.856L405.781 406.994L410.808 397.07L421.92 397.683L425.655 402.974L425.645 402.963ZM426.333 382.204L435.793 388.393L426.396 394.53L425.952 399.366L423.158 395.398L411.93 394.784L416.406 385.949L412.088 378.416L422.343 380.564L426.333 376.575V382.214V382.204ZM433.137 360.164L436.28 363.306L428.682 370.903V360.153H433.137V360.164ZM426.333 360.164V373.252L421.581 378.003L410.765 375.739L408.49 364.915L413.242 360.174H426.333V360.164ZM404.289 360.164H409.929L405.94 364.153L408.088 374.416L400.553 370.099L391.399 374.723L390.51 371.401L394.394 364.682L387.357 360.619H395.484V352.853L397.918 350.43L404.289 360.185V360.164ZM426.333 353.371V357.826H415.581L423.189 350.218L426.333 353.36V353.371ZM412.268 357.826H405.548L399.601 348.726L399.759 348.567L399.601 348.409L405.538 339.309H412.258L421.517 348.567L412.258 357.826H412.268ZM426.333 339.309V343.764L423.189 346.917L415.591 339.32H426.343L426.333 339.309ZM436.28 333.818L433.137 336.96H428.682V326.21L436.28 333.807V333.818ZM426.333 323.883V336.971H413.242L408.49 332.22L410.765 321.396L421.581 319.132L426.333 323.883ZM426.396 302.594L435.804 308.741L426.343 314.921V320.571L422.353 316.582L412.109 318.73L416.427 311.196L411.951 302.361L423.168 301.748L425.962 297.79L426.396 302.615V302.594ZM421.909 299.452L410.797 300.065L405.77 290.141L408.48 284.268L424.078 277.063L425.634 294.161L421.909 299.441V299.452ZM432.555 273.148L436.502 278.756L427.708 291.23L426.333 276.036L432.555 273.158V273.148ZM423.232 267.762L423.856 274.597L410.003 280.999L416.406 267.138L423.232 267.762ZM413.93 266.916L406.723 282.512L400.849 285.221L390.923 280.195L391.537 269.085L396.828 265.35L413.93 266.905V266.916ZM393.219 265.032L389.251 267.836L388.637 279.063L379.801 274.597L372.255 278.914L374.403 268.662L370.414 264.673H376.054L382.235 255.213L388.373 264.609L393.209 265.043L393.219 265.032ZM417.845 258.43L414.967 264.652L399.781 263.276L412.247 254.483L417.845 258.43ZM396.183 262.948L389.727 262.366L383.642 253.055L389.727 243.744L396.183 243.162L410.215 253.055L396.183 262.948ZM414.967 241.448L415.506 242.633L417.835 247.669L413.337 250.844L412.236 251.627L399.77 242.845L414.956 241.469L414.967 241.448ZM388.383 241.511L382.245 250.907L376.065 241.459H370.424L374.414 237.47L372.266 227.206L379.801 231.523L388.637 227.058L389.251 238.274L393.219 241.067L388.383 241.511ZM396.828 240.75L391.537 237.015L390.923 225.905L400.849 220.879L406.723 223.588L413.93 239.184L396.828 240.739V240.75ZM423.232 238.348L416.406 238.972L410.003 225.111L423.856 231.513L423.232 238.348ZM436.513 227.354L432.566 232.952L426.343 230.074L427.719 214.88L436.513 227.354ZM425.634 211.928L424.078 229.037L408.48 221.831L405.77 215.959L410.797 206.034L421.909 206.648L425.634 211.928ZM426.333 191.189L435.793 197.369L426.396 203.505L425.962 208.33L423.168 204.373L411.951 203.759L416.417 194.935L412.099 187.391L422.353 189.539L426.333 185.55V191.189ZM433.137 169.139L436.28 172.282L428.682 179.889V169.139H433.137ZM426.333 182.238L421.592 186.978L410.765 184.714L408.49 173.89L413.242 169.139H426.333V182.228V182.238ZM404.299 169.139H409.94L405.95 173.128L408.099 183.391L400.564 179.074L391.41 183.698L390.521 180.376L394.394 173.657L387.357 169.594H395.495V161.828L397.918 159.405L404.289 169.15L404.299 169.139ZM366.498 157.543L383.293 147.851H393.145V154.241L396.447 157.553L393.145 160.854V167.245H383.293L366.488 157.543H366.498ZM378.615 167.245H361.916L358.857 161.955L364.149 158.908L378.615 167.256V167.245ZM364.159 156.188L358.868 153.13L361.916 147.84H378.605L364.149 156.188H364.159ZM352.116 121.356V138.042L346.825 141.1L343.767 135.81L352.116 121.356ZM338.01 141.1L332.718 138.042V121.346L341.068 135.81L338.02 141.1H338.01ZM368.911 131.048L360.561 145.512H354.444V139.397L368.9 131.048H368.911ZM372.975 128.7L381.504 123.779L384.7 129.313L389.219 130.519L388.013 135.037L391.209 140.571L382.679 145.502H363.281L372.985 128.7H372.975ZM400.786 96.7986L400.839 96.7774L403.516 95.5712H403.485L405.178 94.7671L404.395 96.46V96.4388L403.305 98.8089L403.135 99.1686L397.273 112.13L384.796 115.135L387.801 102.66L400.765 96.7986H400.786ZM388.521 99.7823L390.489 91.6034L398.098 95.4548L388.51 99.7823H388.521ZM404.522 101.856L408.374 109.464L400.193 111.432L404.522 101.856ZM409.464 111.622L413.75 120.097L409.019 128.35L408.786 128.403L408.734 128.636L400.479 133.366L392.172 129.176L398.966 114.151L409.453 111.622H409.464ZM396.087 114.839L389.992 128.308L386.245 127.303L383.176 122.002L384.214 117.696L396.087 114.839ZM380.901 121.42L375.313 124.647L378.541 119.05L381.653 118.299L380.901 121.409V121.42ZM387.357 145.502L394.405 141.428L390.531 134.709L391.42 131.398L400.574 136.021L408.109 131.704L405.95 141.957L409.94 145.946H404.299L397.929 155.691L395.505 153.257V145.502H387.367H387.357ZM426.333 162.346V166.801H415.581L423.179 159.204L426.322 162.346H426.333ZM426.333 148.284V152.739L423.189 155.881L415.591 148.284H426.343H426.333ZM421.539 157.543L412.279 166.801H405.569L399.622 157.701L399.781 157.543L399.622 157.384L405.569 148.284H412.289L421.549 157.543H421.539ZM436.28 142.804L433.137 145.946H428.682V135.196L436.28 142.804ZM426.333 132.858V145.946H413.242L408.49 141.195L410.765 130.382L421.592 128.118L426.333 132.858ZM426.396 111.58L435.804 117.727L426.343 123.906V129.546L422.364 125.557L412.099 127.715L416.417 120.171L411.94 111.336L423.158 110.723L425.962 106.755L426.396 111.59V111.58ZM421.898 108.437L410.797 109.051L405.77 99.1263L408.48 93.254L424.068 86.0485L425.624 103.147L421.888 108.437H421.898ZM432.555 82.1231L436.502 87.7309L427.708 100.195L426.333 85.001L432.555 82.1231ZM423.221 76.7375L423.846 83.562L409.993 89.9634L416.395 76.1132L423.221 76.7375ZM391.526 78.0707L396.817 74.3357L413.93 75.891L406.723 91.487L400.849 94.2063L390.923 89.1804L391.537 78.0707H391.526ZM366.604 99.4755L371.43 91.0426L379.864 86.2178L388.341 90.503L385.812 100.999L370.795 107.792L366.593 99.4861L366.604 99.4755ZM385.124 103.888L382.266 115.759L377.959 116.796L372.657 113.728L371.652 109.982L385.124 103.888ZM359.387 108.765L364.921 111.95L369.44 110.744L370.657 115.262L376.192 118.457L371.271 126.985L354.466 136.688V117.293L359.397 108.765H359.387ZM332.708 106.819H339.1L342.401 103.517L345.714 106.829H352.106V116.68L342.401 133.471L332.697 116.669V106.819H332.708ZM308.643 118.468L314.177 115.273L315.384 110.755L319.913 111.961L325.448 108.776L330.369 117.304V136.699L313.574 127.007L308.653 118.478L308.643 118.468ZM302.155 145.502L293.626 140.571L296.822 135.037L295.605 130.519L300.124 129.313L303.32 123.779L311.849 128.7L321.554 145.502H302.155ZM324.263 145.502L315.913 131.048L330.369 139.386V145.502H324.263ZM291.679 167.245V160.854L288.366 157.553L291.679 154.241V147.851H301.531L318.326 157.553L301.521 167.256H291.679V167.245ZM306.209 147.851H322.908L325.966 153.141L320.675 156.199L306.219 147.851H306.209ZM320.665 158.897L325.956 161.955L322.898 167.245H306.198L320.654 158.897H320.665ZM332.708 167.245H325.607L329.152 161.098L323.003 157.553L329.152 153.998L325.607 147.851H332.697V140.751L338.846 144.306L342.391 138.159L345.936 144.306L352.085 140.762V147.861H359.186L355.64 154.009L361.778 157.553L355.63 161.098L359.186 167.245H352.085V174.334L345.936 170.79L342.38 176.937L338.835 170.79L332.686 174.334V167.235L332.708 167.245ZM296.822 180.037L293.626 174.504L302.155 169.584H321.564L311.86 186.375L303.33 191.306L300.134 185.761L295.615 184.555L296.832 180.027L296.822 180.037ZM271.074 194.988L275.9 186.555L284.334 181.72L292.642 185.92L285.848 200.934L275.35 203.463L271.064 194.988H271.074ZM284.641 203.643L280.313 213.219L276.461 205.611L284.641 203.643ZM262.926 206.648L274.037 206.034L279.064 215.959L276.355 221.831L260.756 229.037L259.2 211.938L262.926 206.648ZM237.569 204.849L246.882 198.765L256.195 204.849L256.777 211.293L246.872 225.333L236.977 211.303L237.559 204.86L237.569 204.849ZM214.711 215.959L219.738 206.034L230.849 206.648L234.585 211.938L233.029 229.037L217.441 221.831L214.721 215.959H214.711ZM200.477 237.015L199.863 225.905L209.79 220.879L215.663 223.588L222.87 239.184L205.769 240.739L200.477 237.004V237.015ZM234.331 240.496L235.061 232.55L242.3 235.893L246.893 229.386L251.486 235.893L258.724 232.55L259.444 240.496L267.381 241.226L264.037 248.452L270.545 253.044L264.037 257.637L267.381 264.874L259.444 265.604L258.724 273.55L251.486 270.206L246.893 276.724L242.3 270.206L235.061 273.55L234.342 265.614L226.405 264.884L229.749 257.658L223.23 253.055L229.749 248.463L226.405 241.236L234.342 240.506L234.331 240.496ZM223.918 241.448L226.796 247.659L221.187 251.605L208.721 242.823L223.918 241.448ZM198.668 262.356L192.583 253.044L198.668 243.744L205.112 243.162L219.145 253.055L205.112 262.959L198.668 262.377V262.356ZM221.187 254.483L226.796 258.441L223.918 264.652L208.721 263.276L221.187 254.483Z" fill="url(#paint0_radial_250_2)"/>
</g>
<defs>
<filter id="filter0_d_250_2" x="0.632473" y="0.544158" width="442.823" height="504.823" filterUnits="userSpaceOnUse" color-interpolation-filters="sRGB">
<feFlood flood-opacity="0" result="BackgroundImageFix"/>
<feColorMatrix in="SourceAlpha" type="matrix" values="0 0 0 0 0 0 0 0 0 0 0 0 0 0 0 0 0 0 127 0" result="hardAlpha"/>
<feOffset dx="-4.45584" dy="4.45584"/>
<feGaussianBlur stdDeviation="4.45584"/>
<feColorMatrix type="matrix" values="0 0 0 0 0.227451 0 0 0 0 0.156863 0 0 0 0 0.00392157 0 0 0 0.2 0"/>
<feBlend mode="normal" in2="BackgroundImageFix" result="effect1_dropShadow_250_2"/>
<feBlend mode="normal" in="SourceGraphic" in2="effect1_dropShadow_250_2" result="shape"/>
</filter>
<radialGradient id="paint0_radial_250_2" cx="0" cy="0" r="1" gradientUnits="userSpaceOnUse" gradientTransform="translate(342.987 347.999) rotate(44.9948) scale(446.231 446.231)">
<stop stop-color="#E7C34F"/>
<stop offset="1" stop-color="#E1A94E"/>
</radialGradient>
</defs>
</svg>
